<svg xmlns="http://www.w3.org/2000/svg" xmlns:xlink="http://www.w3.org/1999/xlink" width="48.401" height="39.306" viewBox="0 0 48.401 39.306">
  <defs>
    <clipPath id="clip-path">
      <rect id="Ret칙ngulo_587" data-name="Ret칙ngulo 587" width="21" height="32" transform="translate(-0.14)" fill="#e3be69"/>
    </clipPath>
  </defs>
  <g id="Grupo_175" data-name="Grupo 175" transform="translate(0)">
    <g id="Grupo_157" data-name="Grupo 157">
      <g id="Grupo_150" data-name="Grupo 150" transform="translate(0 1.107)" style="mix-blend-mode: multiply;isolation: isolate">
        <path id="Caminho_1057" data-name="Caminho 1057" d="M2400.239,2655.4a5.216,5.216,0,0,0-3.459-1.1l-.078-4.127a3.4,3.4,0,0,0-3.384-3.309h-.025l-8.21.052v-2.961a3.561,3.561,0,0,0-3.557-3.557H2363.42a3.561,3.561,0,0,0-3.557,3.557v2.8h-3.068a.591.591,0,0,0,0,1.181h3.068v2.806h-5.812a.591.591,0,0,0,0,1.182h5.812v6.391a.591.591,0,0,0,.591.591h.78v5a2.468,2.468,0,0,0,2.465,2.465h2.607a4.515,4.515,0,0,0,8.963,0h8.915a4.515,4.515,0,0,0,8.964,0h1.33c1.621,0,5.924-.114,5.967-.115a.59.59,0,0,0,.575-.588c.01-2.672.027-7.713.029-8.015A2.764,2.764,0,0,0,2400.239,2655.4Zm-4.686-3.477.045,2.411a.544.544,0,0,0-.06,0h-5.119v-2.406h5.134Zm-34.508,0h10.277a.591.591,0,0,0,0-1.182h-10.277v-2.806h13.021a.591.591,0,1,0,0-1.181h-13.021v-2.8a2.378,2.378,0,0,1,2.375-2.375h18.106a2.379,2.379,0,0,1,2.375,2.375v13.771h-22.857Zm9.743,17.237a3.334,3.334,0,1,1,3.334-3.334A3.338,3.338,0,0,1,2370.788,2669.161Zm17.878,0a3.334,3.334,0,1,1,3.334-3.334A3.338,3.338,0,0,1,2388.666,2669.161Zm11.2-11.567c0,.024,0,.039-.028,7.5-1.23.031-4.111.1-5.363.1h-.793a5.079,5.079,0,0,0-9.984,0h-7.922a5.079,5.079,0,0,0-9.984,0h-2.1a1.285,1.285,0,0,1-1.283-1.283v-5h22.077a.591.591,0,0,0,.591-.591V2648.1l8.219-.052a2.214,2.214,0,0,1,2.219,2.152l.01.546h-5.7a.591.591,0,0,0-.591.591v3.588a.591.591,0,0,0,.591.59h5.71a.685.685,0,0,1,.718-.016,4.67,4.67,0,0,1,3.163.754A1.615,1.615,0,0,1,2399.869,2657.594Z" transform="translate(-2353.46 -2640.397)" fill="#4c2b1d"/>
      </g>
      <g id="Grupo_de_m치scara_8" data-name="Grupo de m치scara 8" transform="translate(5.408 0)" clip-path="url(#clip-path)" style="isolation: isolate">
        <path id="Caminho_1058" data-name="Caminho 1058" d="M2484.262,3169.472l.046,2.41-.06,0h-5.119v-2.407h5.134Zm-34.508,0h10.277a.591.591,0,1,0,0-1.181h-10.277v-2.806h13.021a.591.591,0,0,0,0-1.182h-13.021v-2.8a2.378,2.378,0,0,1,2.375-2.375h18.106a2.378,2.378,0,0,1,2.375,2.375v13.771h-22.856Zm9.743,17.237a3.334,3.334,0,1,1,3.334-3.334A3.338,3.338,0,0,1,2459.5,3186.71Zm17.879,0a3.334,3.334,0,1,1,3.335-3.334A3.338,3.338,0,0,1,2477.375,3186.71Zm11.2-11.567c0,.024,0,.039-.029,7.5-1.23.031-4.111.1-5.363.1h-.792a5.079,5.079,0,0,0-9.984,0h-7.922a5.079,5.079,0,0,0-9.984,0h-2.1a1.285,1.285,0,0,1-1.283-1.284v-5H2473.2a.591.591,0,0,0,.591-.591v-10.219l8.219-.052a2.214,2.214,0,0,1,2.219,2.152l.01.547h-5.7a.591.591,0,0,0-.591.591v3.588a.591.591,0,0,0,.591.591h5.71a.685.685,0,0,1,.718-.016,4.671,4.671,0,0,1,3.163.755A1.616,1.616,0,0,1,2488.579,3175.143Z" transform="translate(-2447.577 -3156.817)" fill="#e3be69" opacity="0.4" style="mix-blend-mode: screen;isolation: isolate"/>
      </g>
    </g>
    <path id="Caminho_1072" data-name="Caminho 1072" d="M453.734,125H497.2" transform="translate(-449.564 -90.161)" fill="none" stroke="#4c2b1d" stroke-linecap="round" stroke-width="1"/>
    <path id="Caminho_1073" data-name="Caminho 1073" d="M529.767,120.8l4.2,3.717-4.2,3.837" transform="translate(-486.063 -89.754)" fill="none" stroke="#4c2b1d" stroke-linecap="round" stroke-linejoin="round" stroke-width="1"/>
  </g>
</svg>
