<svg xmlns="http://www.w3.org/2000/svg" xmlns:xlink="http://www.w3.org/1999/xlink" width="54.237" height="37.017" viewBox="0 0 54.237 37.017">
  <defs>
    <clipPath id="clip-path">
      <rect id="Ret칙ngulo_587" data-name="Ret칙ngulo 587" width="24.011" height="37.017" transform="translate(0)" fill="#e3be69" stroke="#707070" stroke-width="1"/>
    </clipPath>
  </defs>
  <g id="Grupo_176" data-name="Grupo 176" transform="translate(-333.601 -7.67)">
    <g id="Grupo_151" data-name="Grupo 151" transform="translate(333.601 7.67)">
      <g id="Grupo_150" data-name="Grupo 150" transform="translate(0 1.789)" opacity="0.5" style="mix-blend-mode: multiply;isolation: isolate">
        <path id="Caminho_1057" data-name="Caminho 1057" d="M2406.765,2657.494a5.943,5.943,0,0,0-3.942-1.257l-.089-4.7a3.873,3.873,0,0,0-3.855-3.77h-.028l-9.356.059v-3.375a4.057,4.057,0,0,0-4.053-4.053H2364.81a4.058,4.058,0,0,0-4.053,4.053v3.193h-3.5a.673.673,0,1,0,0,1.346h3.5v3.2h-6.623a.673.673,0,1,0,0,1.346h6.623v7.283a.673.673,0,0,0,.673.673h.889v5.7a2.812,2.812,0,0,0,2.809,2.809h2.971a5.145,5.145,0,0,0,10.214,0h10.159a5.145,5.145,0,0,0,10.214,0h1.515c1.847,0,6.75-.13,6.8-.131a.673.673,0,0,0,.655-.671c.011-3.045.031-8.789.033-9.133A3.145,3.145,0,0,0,2406.765,2657.494Zm-5.34-3.962.052,2.747a.628.628,0,0,0-.068,0h-5.833v-2.742h5.85Zm-39.323,0h11.711a.673.673,0,1,0,0-1.346H2362.1v-3.2h14.838a.673.673,0,1,0,0-1.346H2362.1v-3.193a2.71,2.71,0,0,1,2.707-2.707h20.632a2.71,2.71,0,0,1,2.707,2.707v15.692H2362.1Zm11.1,19.642a3.8,3.8,0,1,1,3.8-3.8A3.8,3.8,0,0,1,2373.205,2673.175Zm20.373,0a3.8,3.8,0,1,1,3.8-3.8A3.8,3.8,0,0,1,2393.578,2673.175Zm12.766-13.181c0,.028,0,.044-.032,8.542-1.4.035-4.685.114-6.111.114h-.9a5.788,5.788,0,0,0-11.377,0h-9.027a5.788,5.788,0,0,0-11.377,0h-2.389a1.464,1.464,0,0,1-1.463-1.463v-5.7h25.157a.673.673,0,0,0,.673-.673v-11.645l9.365-.059a2.523,2.523,0,0,1,2.528,2.452l.012.623h-6.5a.674.674,0,0,0-.674.673v4.089a.673.673,0,0,0,.674.673h6.506a.783.783,0,0,1,.818-.018c.689-.065,2.681-.036,3.6.86A1.841,1.841,0,0,1,2406.344,2659.993Z" transform="translate(-2353.46 -2640.397)" fill="#4c2b1d"/>
      </g>
      <g id="Grupo_de_m치scara_8" data-name="Grupo de m치scara 8" transform="translate(5.891)" opacity="0.4" clip-path="url(#clip-path)" style="isolation: isolate">
        <path id="Caminho_1058" data-name="Caminho 1058" d="M2489.076,3170.916l.052,2.747a.635.635,0,0,0-.068,0h-5.833v-2.742h5.85Zm-39.323,0h11.711a.673.673,0,1,0,0-1.346h-11.711v-3.2h14.838a.673.673,0,1,0,0-1.346h-14.838v-3.193a2.71,2.71,0,0,1,2.707-2.707h20.632a2.71,2.71,0,0,1,2.707,2.707v15.692h-26.045Zm11.1,19.642a3.8,3.8,0,1,1,3.8-3.8A3.8,3.8,0,0,1,2460.856,3190.558Zm20.373,0a3.8,3.8,0,1,1,3.8-3.8A3.8,3.8,0,0,1,2481.229,3190.558ZM2494,3177.377c0,.027,0,.044-.032,8.542-1.4.035-4.685.114-6.111.114h-.9a5.788,5.788,0,0,0-11.377,0h-9.027a5.788,5.788,0,0,0-11.377,0h-2.39a1.464,1.464,0,0,1-1.462-1.463v-5.7h25.157a.673.673,0,0,0,.673-.673v-11.644l9.365-.06a2.524,2.524,0,0,1,2.529,2.452l.012.623h-6.5a.673.673,0,0,0-.673.673v4.088a.673.673,0,0,0,.673.673h6.506a.78.78,0,0,1,.818-.018c.689-.065,2.681-.036,3.6.86A1.841,1.841,0,0,1,2494,3177.377Z" transform="translate(-2447.003 -3155.967)" fill="#e3be69" opacity="0.4" style="mix-blend-mode: screen;isolation: isolate"/>
      </g>
    </g>
  </g>
</svg>
