<svg xmlns="http://www.w3.org/2000/svg" width="36.076" height="38.237" viewBox="0 0 36.076 38.237">
  <g id="Grupo_177" data-name="Grupo 177" transform="translate(-451.719 -6)">
    <g id="Grupo_145" data-name="Grupo 145" transform="translate(451.719 6)" opacity="0.5">
      <g id="Grupo_131" data-name="Grupo 131" transform="translate(0 0)" style="mix-blend-mode: multiply;isolation: isolate">
        <g id="Grupo_132" data-name="Grupo 132" transform="translate(0 1.346)" opacity="0.4" style="isolation: isolate">
          <path id="Caminho_1026" data-name="Caminho 1026" d="M2493.046,1214.949v-2.8l-13.362-6.416-4.869,2.448,15.772,7.934Z" transform="translate(-2474.081 -1200.094)" fill="#e3be69"/>
          <path id="Caminho_1027" data-name="Caminho 1027" d="M2620.353,1137.725l-2.151-1.052-4.769,2.4,6.92,3.078Z" transform="translate(-2601.387 -1136.673)" fill="#e3be69"/>
          <path id="Caminho_1028" data-name="Caminho 1028" d="M2563.4,1178.466l-8.334-3.707-3.646,1.833,11.98,5.753Z" transform="translate(-2544.436 -1171.651)" fill="#e3be69"/>
          <path id="Caminho_1029" data-name="Caminho 1029" d="M2682.173,1335.3l-1.427.675.347,19.061,1.08-.543Z" transform="translate(-2663.207 -1319.096)" fill="#e3be69"/>
          <path id="Caminho_1030" data-name="Caminho 1030" d="M2482.035,1256.148l-16.224-8.161.291,18.785,16.371,8.067-.34-18.653A.611.611,0,0,1,2482.035,1256.148ZM2471,1266.613a.611.611,0,0,1-.811.3l-2.736-1.254a.612.612,0,1,1,.51-1.113l2.736,1.254A.612.612,0,0,1,2471,1266.613Zm2.2-.847a.612.612,0,0,1-.557.357.606.606,0,0,1-.254-.056l-4.935-2.262a.612.612,0,1,1,.51-1.113l4.935,2.262A.611.611,0,0,1,2473.2,1265.766Z" transform="translate(-2465.811 -1238.904)" fill="#e3be69"/>
        </g>
        <g id="Grupo_155" data-name="Grupo 155" transform="translate(0.057)">
          <path id="Caminho_1068" data-name="Caminho 1068" d="M2512.891-523.133c0-.007,0-.013,0-.02s-.007-.04-.012-.059l-.009-.028c-.005-.016-.011-.032-.017-.048l-.014-.029c-.007-.014-.014-.028-.022-.042l-.018-.028a.453.453,0,0,0-.027-.038l-.021-.026-.032-.034-.025-.023-.038-.03-.026-.019-.009-.006-.039-.021-.02-.011-17.643-8.631a.6.6,0,0,0-.535,0l-17.17,8.631-.007,0a.677.677,0,0,0-.065.039h0a.5.5,0,0,0-.058.047l-.015.014a.541.541,0,0,0-.042.044l-.009.01a.674.674,0,0,0-.043.06l-.007.013a.586.586,0,0,0-.029.055l-.006.014a.521.521,0,0,0-.026.072v0a.548.548,0,0,0-.015.07c0,.006,0,.013,0,.02a.437.437,0,0,0,0,.062s0,.008,0,.012v.009l.308,19.859a.6.6,0,0,0,.335.531l17.337,8.543.02.008.029.012.045.015.025.007.055.011.018,0a.588.588,0,0,0,.074,0h.012a.577.577,0,0,0,.066,0l.027-.005.05-.011.03-.009.045-.016.031-.015.026-.012,17.17-9.327a.6.6,0,0,0,.315-.53v-19.074A.712.712,0,0,0,2512.891-523.133Zm-7.317,9.075-3.943,1.87-.006-5.159,3.8-1.794Zm-17.009-13.894,16.816,7.479v.018l-4.311,2.037-16.1-7.73Zm6.088-3.06,16.25,7.949-4.346,2.054a.6.6,0,0,0-.34-.41l-16.26-7.232Zm-11.038,5.548,16.053,7.709-5.317,2.513-15.53-7.812Zm-5.518,3.4,15.974,8.035a.624.624,0,0,0,.1.037l.335,18.366-16.119-7.943Zm33.594,17.73-15.984,8.683-.341-18.733,5.054-2.388.006,5.542a.6.6,0,0,0,.281.509.6.6,0,0,0,.322.093.6.6,0,0,0,.258-.058l5.159-2.447a.6.6,0,0,0,.344-.562l-.18-6,5.081-2.4Z" transform="translate(-2476.877 532.287)" fill="#4c2b1d"/>
          <path id="Caminho_1069" data-name="Caminho 1069" d="M2513.574-223.286l-4.859-2.227a.6.6,0,0,0-.8.3.6.6,0,0,0,.3.8l4.859,2.227a.6.6,0,0,0,.251.055.6.6,0,0,0,.548-.352A.6.6,0,0,0,2513.574-223.286Z" transform="translate(-2505.372 250.211)" fill="#4c2b1d"/>
          <path id="Caminho_1070" data-name="Caminho 1070" d="M2511.409-201.547l-2.694-1.235a.6.6,0,0,0-.8.3.6.6,0,0,0,.3.8l2.694,1.235a.6.6,0,0,0,.251.055.6.6,0,0,0,.548-.352A.6.6,0,0,0,2511.409-201.547Z" transform="translate(-2505.372 229.306)" fill="#4c2b1d"/>
        </g>
      </g>
    </g>
  </g>
</svg>
