<svg xmlns="http://www.w3.org/2000/svg" width="37.272" height="37.265" viewBox="0 0 37.272 37.265">
  <path id="Caminho_985" data-name="Caminho 985" d="M1774.428,3556.778c.221-.3.436-.6.639-.913q.387-.593.729-1.213a18.569,18.569,0,0,0-3.151-22.132q-.633-.633-1.324-1.2a18.555,18.555,0,0,0-9.945-4.165,18.856,18.856,0,0,0-1.9-.1,18.608,18.608,0,0,0-5.536.839q-.875.273-1.711.628a18.648,18.648,0,0,0,.489,34.537q.834.325,1.7.571a18.564,18.564,0,0,0,4.539.69v-13.456h-4.188v-6.6h4.188v-2.734c0-4.5,2.727-7.291,7.117-7.291,1.089,0,2.053.046,2.759.1l.225.017c.43.034.739.066.884.085l.745.1v5.964h-3.421c-1.414,0-1.554.438-1.554,1.512v2.25h4.952l-.452,3.5-.4,3.1h-4.1v12.392a18.582,18.582,0,0,0,7.635-5.146q.236-.264.462-.537C1774.024,3557.314,1774.229,3557.048,1774.428,3556.778Z" transform="translate(-1740.839 -3527.056)" fill="#281815"/>
</svg>
