<svg xmlns="http://www.w3.org/2000/svg" width="33.031" height="33.031" viewBox="0 0 33.031 33.031">
  <g id="Grupo_2925" data-name="Grupo 2925" transform="translate(0 -0.125)">
    <path id="Caminho_981" data-name="Caminho 981" d="M1206.17,3545.129a.942.942,0,0,0-.923,1.131.93.93,0,0,0,.142.337.946.946,0,0,0,.415.342.941.941,0,0,0,.733,0,.947.947,0,0,0,.415-.342.929.929,0,0,0,.142-.337.893.893,0,0,0,.02-.189.943.943,0,0,0-.942-.942Z" transform="translate(-1179.288 -3539.826)" fill="#281815"/>
    <path id="Caminho_982" data-name="Caminho 982" d="M1178.146,3563.279a7.8,7.8,0,1,0-.615,3.041A7.841,7.841,0,0,0,1178.146,3563.279Z" transform="translate(-1153.81 -3545.986)" fill="#281815"/>
    <path id="Caminho_983" data-name="Caminho 983" d="M1173.995,3561.435V3536.2a3.9,3.9,0,0,0-3.9-3.9H1144.86a3.9,3.9,0,0,0-3.9,3.9v25.239a3.9,3.9,0,0,0,3.9,3.9H1170.1a3.875,3.875,0,0,0,2.177-.666,3.891,3.891,0,0,0,1.719-3.23Zm-6.728-11.518c0,.085-.008.172-.014.259-.009.133-.022.265-.037.4-.009.084-.017.167-.028.251-.02.146-.045.292-.071.438-.012.071-.023.143-.037.214-.044.218-.093.438-.152.657a9.633,9.633,0,0,1-3.431,5.119,9.482,9.482,0,0,1-3.356,1.667l-.025.005c-.221.058-.441.109-.661.152-.081.017-.161.026-.242.04-.146.025-.292.052-.437.071-.094.012-.187.018-.28.027-.131.013-.263.029-.393.037-.1.006-.193.007-.29.01s-.224.011-.334.011l-.042,0c-.069,0-.137,0-.205-.005-.142,0-.282-.008-.422-.018-.08-.006-.159-.014-.239-.021-.127-.011-.254-.024-.379-.041l-.246-.036q-.183-.029-.364-.065c-.081-.016-.162-.032-.242-.05-.121-.027-.241-.057-.361-.089-.076-.02-.152-.039-.227-.061-.128-.037-.253-.078-.378-.12-.065-.021-.131-.042-.194-.064-.16-.058-.317-.12-.473-.185-.027-.011-.055-.021-.083-.033q-.274-.118-.54-.252c-.048-.024-.094-.051-.141-.076-.128-.067-.255-.135-.379-.208-.062-.036-.121-.074-.182-.111-.108-.066-.215-.133-.321-.2-.063-.042-.125-.085-.188-.129-.1-.07-.2-.141-.3-.214-.062-.046-.123-.093-.183-.142q-.144-.114-.283-.234c-.057-.048-.114-.1-.169-.147-.1-.086-.19-.175-.283-.265-.048-.047-.1-.093-.144-.14-.109-.11-.214-.224-.318-.339-.027-.03-.056-.059-.083-.09-.13-.148-.256-.3-.378-.457-.024-.031-.046-.063-.07-.094-.095-.125-.188-.252-.277-.381-.038-.055-.073-.111-.11-.167-.072-.109-.142-.219-.209-.331-.038-.063-.075-.129-.112-.194q-.092-.16-.178-.325c-.035-.068-.071-.138-.1-.208-.055-.11-.106-.222-.156-.335-.031-.069-.062-.14-.092-.21-.049-.118-.1-.238-.14-.359-.025-.067-.051-.134-.074-.2-.048-.138-.091-.277-.132-.417-.016-.053-.033-.1-.048-.157q-.081-.293-.145-.591c-.005-.026-.009-.051-.014-.077-.036-.173-.067-.348-.093-.524-.01-.068-.017-.137-.025-.206-.017-.135-.033-.271-.044-.409-.007-.079-.011-.16-.015-.24-.008-.128-.013-.258-.016-.387,0-.085,0-.169,0-.254,0-.128,0-.256.01-.386,0-.085.008-.172.014-.258.009-.132.022-.265.037-.4.009-.083.017-.167.029-.25.02-.146.045-.292.071-.438.013-.071.023-.143.038-.214.043-.218.093-.436.151-.655h0a9.357,9.357,0,0,1,.967-2.318,9.669,9.669,0,0,1,.7-1.038,9.793,9.793,0,0,1,.826-.939q.221-.22.456-.428a9.8,9.8,0,0,1,.99-.764q.26-.175.531-.333a9.353,9.353,0,0,1,2.319-.966l.024-.006c.221-.058.442-.109.661-.152.08-.017.159-.026.239-.04.147-.026.294-.052.44-.072.093-.012.185-.018.278-.026.132-.014.263-.029.394-.037.1-.006.194-.006.291-.009s.223-.011.333-.011h.041c.069,0,.138,0,.207.006.141,0,.281.008.42.017.081.005.16.014.24.022.127.011.253.024.379.041.083.01.165.023.247.036.122.02.242.041.363.064l.243.05q.181.042.359.089c.077.02.153.04.229.062.126.037.25.077.374.119.066.022.133.043.2.066.156.056.309.116.461.181l.094.037q.274.117.538.251c.05.026.1.054.149.081.125.065.249.132.37.2.063.037.125.077.188.115.106.065.211.13.314.2.065.043.129.088.193.133.1.069.194.139.289.211.064.047.126.1.189.146.094.074.185.15.276.228.059.051.118.1.176.153.093.083.184.17.274.257.051.05.1.1.152.148.1.1.205.214.3.324.032.035.065.069.1.1.13.147.254.3.375.454.028.035.053.072.08.108.091.121.18.241.266.367.04.058.078.118.116.177.069.106.137.211.2.32.04.066.078.134.117.2.06.1.117.209.174.317.037.071.073.142.108.214q.079.161.152.326c.032.072.064.146.1.219.048.115.093.231.136.349.026.069.053.139.078.209.046.135.088.271.129.407.016.056.035.111.051.167.054.194.1.39.145.588.007.031.011.063.017.094.034.168.064.337.09.508.01.07.017.141.026.211.017.134.032.268.043.4.007.081.011.163.015.244.008.126.013.254.016.383,0,.085,0,.171,0,.256C1167.276,3549.66,1167.273,3549.788,1167.267,3549.917Zm.579-8.572a2.927,2.927,0,0,1-2.924-2.924,2.865,2.865,0,0,1,.015-.3,2.9,2.9,0,0,1,.116-.57,2.926,2.926,0,0,1,5.585,0,2.9,2.9,0,0,1,.116.57,2.864,2.864,0,0,1,.016.3A2.927,2.927,0,0,1,1167.846,3541.345Z" transform="translate(-1140.964 -3532.175)" fill="#281815"/>
  </g>
</svg>
