<svg xmlns="http://www.w3.org/2000/svg" width="29.875" height="34.667" viewBox="0 0 29.875 34.667">
  <g id="Grupo_161" data-name="Grupo 161" transform="translate(0)" opacity="0.5">
    <path id="Subtração_2" data-name="Subtração 2" d="M19.581,33.509h-.424a1.971,1.971,0,0,1-1.516-.557,2.881,2.881,0,0,1-.617-1.887c0-.011,0-.023,0-.035v-4.1a.608.608,0,0,0-.177-.428.6.6,0,0,0-.421-.174H16.42l-11.283.112L5.247,0H19.581Zm-2.6,0H2.446A2.457,2.457,0,0,1,0,31.047V27.7l4.881-.048a.573.573,0,0,0,.091.008h0a.588.588,0,0,0,.106-.01l11.186-.111v3.475a4.284,4.284,0,0,0,.717,2.492Z" transform="translate(2.176 0)" fill="#e3be69" opacity="0.4"/>
    <path id="Subtração_3" data-name="Subtração 3" d="M14.51,33.442h-.426a1.987,1.987,0,0,1-1.523-.556A2.854,2.854,0,0,1,11.94,31c0-.012,0-.023,0-.035V26.879a.6.6,0,0,0-.178-.427.6.6,0,0,0-.423-.174h-.006L0,26.39.11,0h14.4Z" transform="translate(6.736 0.179)" fill="#4c2b1d" opacity="0.3" style="mix-blend-mode: screen;isolation: isolate"/>
    <path id="Caminho_1075" data-name="Caminho 1075" d="M1902.526,1554.467a.575.575,0,0,0-.406-.168h0l-7.525.021h-15.729a.575.575,0,0,0-.575.573l-.108,25.849-4.791.047a.575.575,0,0,0-.57.575v3.764a3.507,3.507,0,0,0,3.5,3.5h25.8a.576.576,0,0,0,.575-.576v-33.183A.576.576,0,0,0,1902.526,1554.467Zm-26.2,33.015a2.355,2.355,0,0,1-2.352-2.352v-3.194l4.693-.046a.57.57,0,0,0,.087.008.584.584,0,0,0,.1-.01l10.759-.106v3.32a4.034,4.034,0,0,0,.69,2.381Zm15.031-.532a2.757,2.757,0,0,1-.593-1.8c0-.011,0-.022,0-.033V1581.2a.576.576,0,0,0-.171-.409.564.564,0,0,0-.411-.167l-10.849.107.106-25.26h15.158l6.949-.02v32.031h-8.732A1.9,1.9,0,0,1,1891.354,1586.95Z" transform="translate(-1872.82 -1553.965)" fill="#4c2b1d"/>
    <path id="Caminho_1076" data-name="Caminho 1076" d="M1992.677,1629.256a2.213,2.213,0,1,0,2.213,2.213A2.215,2.215,0,0,0,1992.677,1629.256Zm0,3.275a1.062,1.062,0,1,1,1.062-1.062A1.063,1.063,0,0,1,1992.677,1632.531Z" transform="translate(-1981.438 -1623.172)" fill="#4c2b1d"/>
    <path id="Caminho_1077" data-name="Caminho 1077" d="M1992.677,1705.731a2.213,2.213,0,1,0,2.213,2.213A2.215,2.215,0,0,0,1992.677,1705.731Zm0,3.275a1.062,1.062,0,1,1,1.062-1.062A1.063,1.063,0,0,1,1992.677,1709.005Z" transform="translate(-1981.438 -1693.779)" fill="#4c2b1d"/>
    <path id="Caminho_1078" data-name="Caminho 1078" d="M1992.677,1777.832a2.213,2.213,0,1,0,2.213,2.213A2.215,2.215,0,0,0,1992.677,1777.832Zm0,3.275a1.062,1.062,0,1,1,1.062-1.062A1.063,1.063,0,0,1,1992.677,1781.107Z" transform="translate(-1981.438 -1760.349)" fill="#4c2b1d"/>
    <path id="Caminho_1079" data-name="Caminho 1079" d="M2064.3,1655.6h9.419a.575.575,0,1,0,0-1.151H2064.3a.575.575,0,1,0,0,1.151Z" transform="translate(-2049.083 -1646.437)" fill="#4c2b1d"/>
    <path id="Caminho_1080" data-name="Caminho 1080" d="M2073.723,1727.036H2064.3a.575.575,0,1,0,0,1.151h9.419a.575.575,0,0,0,0-1.151Z" transform="translate(-2049.083 -1713.45)" fill="#4c2b1d"/>
    <path id="Caminho_1081" data-name="Caminho 1081" d="M2073.723,1799.173H2064.3a.575.575,0,1,0,0,1.151h9.419a.575.575,0,1,0,0-1.151Z" transform="translate(-2049.083 -1780.053)" fill="#4c2b1d"/>
  </g>
</svg>
