<svg xmlns="http://www.w3.org/2000/svg" width="39.831" height="39.076" viewBox="0 0 39.831 39.076">
  <g id="Grupo_130" data-name="Grupo 130" transform="translate(0)">
    <path id="Subtração_1" data-name="Subtração 1" d="M19.572,33.493h-.424a1.97,1.97,0,0,1-1.516-.557,2.88,2.88,0,0,1-.616-1.886c0-.011,0-.023,0-.035v-4.1a.608.608,0,0,0-.177-.428.6.6,0,0,0-.421-.174h-.006L5.135,26.43,5.245,0H19.572Zm-2.6,0H2.445A2.456,2.456,0,0,1,0,31.032V27.69l4.878-.048a.573.573,0,0,0,.091.008h0a.588.588,0,0,0,.106-.01l11.18-.111V31a4.282,4.282,0,0,0,.716,2.49Z" transform="translate(1.867 0.061)" fill="#e3be69" opacity="0.4"/>
    <path id="Subtração_1-2" data-name="Subtração 1" d="M14.5,33.427h-.426a1.986,1.986,0,0,1-1.522-.556,2.852,2.852,0,0,1-.619-1.882c0-.012,0-.023,0-.035V26.867a.6.6,0,0,0-.178-.427.6.6,0,0,0-.423-.174h-.006L0,26.378.11,0H14.5Z" transform="translate(6.425 0.24)" fill="#4c2b1d" opacity="0.3" style="mix-blend-mode: screen;isolation: isolate"/>
    <g id="Grupo_121" data-name="Grupo 121" style="mix-blend-mode: multiply;isolation: isolate">
      <g id="Grupo_119" data-name="Grupo 119">
        <g id="Grupo_123" data-name="Grupo 123">
          <path id="Caminho_1006" data-name="Caminho 1006" d="M1845.77,595.557c-.271,0-.539.012-.8.034V576.329a.566.566,0,0,0-.566-.566h0l-7.4.021h-15.472a.566.566,0,0,0-.566.564l-.106,25.427-4.713.046a.566.566,0,0,0-.561.566v3.7a3.45,3.45,0,0,0,3.446,3.446h18.137a9.64,9.64,0,1,0,8.608-13.979ZM1819.026,608.4a2.316,2.316,0,0,1-2.314-2.314v-3.142l4.616-.046a.576.576,0,0,0,.086.008h0a.57.57,0,0,0,.1-.009l10.579-.1v3.266a3.968,3.968,0,0,0,.678,2.342Zm16.219,0a1.869,1.869,0,0,1-1.434-.524,2.713,2.713,0,0,1-.583-1.773c0-.011,0-.022,0-.033v-3.85a.566.566,0,0,0-.572-.566l-10.672.105.1-24.848H1837l6.835-.019v18.856a9.641,9.641,0,0,0-7.156,12.651Zm10.525,5.3a8.509,8.509,0,1,1,8.509-8.509A8.518,8.518,0,0,1,1845.77,613.707Z" transform="translate(-1815.58 -575.763)" fill="#4c2b1d" style="mix-blend-mode: multiply;isolation: isolate"/>
          <g id="Grupo_122" data-name="Grupo 122" transform="translate(8.878 5.657)">
            <path id="Caminho_1007" data-name="Caminho 1007" d="M1935.4,650.72a2.177,2.177,0,1,0,2.177,2.177A2.179,2.179,0,0,0,1935.4,650.72Zm0,3.221a1.045,1.045,0,1,1,1.045-1.045A1.046,1.046,0,0,1,1935.4,653.941Z" transform="translate(-1933.224 -650.72)" fill="#4c2b1d" style="mix-blend-mode: multiply;isolation: isolate"/>
            <path id="Caminho_1008" data-name="Caminho 1008" d="M1935.4,727.2a2.177,2.177,0,1,0,2.177,2.177A2.179,2.179,0,0,0,1935.4,727.2Zm0,3.221a1.045,1.045,0,1,1,1.045-1.045A1.046,1.046,0,0,1,1935.4,730.416Z" transform="translate(-1933.224 -721.424)" fill="#4c2b1d" style="mix-blend-mode: multiply;isolation: isolate"/>
            <path id="Caminho_1009" data-name="Caminho 1009" d="M1935.4,799.3a2.177,2.177,0,1,0,2.177,2.177A2.179,2.179,0,0,0,1935.4,799.3Zm0,3.221a1.045,1.045,0,1,1,1.045-1.045A1.046,1.046,0,0,1,1935.4,802.517Z" transform="translate(-1933.224 -788.083)" fill="#4c2b1d" style="mix-blend-mode: multiply;isolation: isolate"/>
            <path id="Caminho_1010" data-name="Caminho 1010" d="M2007.055,677.049h9.265a.566.566,0,1,0,0-1.132h-9.265a.566.566,0,0,0,0,1.132Z" transform="translate(-2000.96 -674.015)" fill="#4c2b1d" style="mix-blend-mode: multiply;isolation: isolate"/>
            <path id="Caminho_1011" data-name="Caminho 1011" d="M2007.055,749.632h9.265a.566.566,0,1,0,0-1.132h-9.265a.566.566,0,0,0,0,1.132Z" transform="translate(-2000.96 -741.121)" fill="#4c2b1d" style="mix-blend-mode: multiply;isolation: isolate"/>
            <path id="Caminho_1012" data-name="Caminho 1012" d="M2016.886,821.2a.566.566,0,0,0-.566-.566h-9.265a.566.566,0,0,0,0,1.132h9.265A.566.566,0,0,0,2016.886,821.2Z" transform="translate(-2000.96 -807.814)" fill="#4c2b1d" style="mix-blend-mode: multiply;isolation: isolate"/>
          </g>
        </g>
        <path id="Caminho_1013" data-name="Caminho 1013" d="M2166.682,918.254a1.132,1.132,0,0,0-1.6.055l-4.552,4.877-2.429-2.565a1.132,1.132,0,1,0-1.644,1.557l3.257,3.439a1.131,1.131,0,0,0,.822.354h0a1.132,1.132,0,0,0,.823-.36l5.373-5.757A1.131,1.131,0,0,0,2166.682,918.254Z" transform="translate(-2131.247 -892.126)" fill="#4c2b1d" style="mix-blend-mode: multiply;isolation: isolate"/>
      </g>
    </g>
  </g>
</svg>
