<svg id="Grupo_156" data-name="Grupo 156" xmlns="http://www.w3.org/2000/svg" xmlns:xlink="http://www.w3.org/1999/xlink" width="42.193" height="42.303" viewBox="0 0 42.193 42.303">
  <defs>
    <clipPath id="clip-path">
      <rect id="Retângulo_586" data-name="Retângulo 586" width="21.204" height="42.303" fill="#e3be69"/>
    </clipPath>
  </defs>
  <g id="Grupo_141" data-name="Grupo 141" transform="translate(0 0)" style="isolation: isolate">
    <g id="Grupo_139" data-name="Grupo 139" opacity="0.3" style="mix-blend-mode: screen;isolation: isolate">
      <g id="Grupo_138" data-name="Grupo 138" clip-path="url(#clip-path)">
        <g id="Grupo_137" data-name="Grupo 137" transform="translate(4.104 1.876)">
          <path id="Caminho_1042" data-name="Caminho 1042" d="M331.574,1527.981l-4.943,5.3-2.638-2.785a1.229,1.229,0,0,0-1.785,1.691l3.537,3.734a1.229,1.229,0,0,0,.893.384h0a1.229,1.229,0,0,0,.894-.391l5.836-6.252a1.229,1.229,0,0,0-1.8-1.678Z" transform="translate(-299.148 -1501.311)" fill="#e3be69"/>
          <path id="Caminho_1043" data-name="Caminho 1043" d="M72.469,1213.657a1.733,1.733,0,0,1-1.731,1.731H54.231a1.731,1.731,0,0,1,0-3.462H70.738A1.733,1.733,0,0,1,72.469,1213.657Zm-27.849-4.986a1.733,1.733,0,0,1,1.731-1.731H62.857a1.731,1.731,0,0,1,0,3.462H46.351A1.733,1.733,0,0,1,44.62,1208.671Zm4.787,8.018H65.914a1.727,1.727,0,0,1,1.153.436c-.126-.009-.253-.016-.38-.021l-.071,0c-.125,0-.251-.007-.377-.007q-.141,0-.281,0l-.067,0-.215.008-.062,0-.223.014-.041,0-.248.022H65.09a11.086,11.086,0,0,0-6.528,3H49.407a1.731,1.731,0,1,1,0-3.462Zm5.838,9.585-.01.057c-.012.067-.023.134-.033.2,0,.03-.009.06-.014.09q-.013.085-.024.171-.007.054-.014.109-.009.078-.018.156c0,.04-.009.079-.012.119s-.009.1-.013.15-.007.081-.01.121-.007.1-.01.155,0,.078-.007.116c0,.058,0,.116-.007.174,0,.033,0,.065,0,.1q0,.136,0,.273c0,.106,0,.211.005.316,0,.025,0,.05,0,.075q.011.314.039.625c0,.029.005.058.008.086q.013.136.03.272c0,.012,0,.025,0,.037H49.407a1.731,1.731,0,0,1,0-3.462h5.849C55.252,1226.235,55.249,1226.254,55.246,1226.274Zm-5.838-1.36a1.731,1.731,0,1,1,0-3.462h7.979a11.169,11.169,0,0,0-1.806,3.462Zm0,9.526a1.731,1.731,0,1,1,0-3.462H55.4a11.172,11.172,0,0,0,1.529,3.462Zm13.391,3.155a9.962,9.962,0,0,1-6.38-7.781v-.008q-.029-.186-.051-.373l0-.015c-.013-.112-.024-.224-.033-.337,0-.019,0-.038,0-.057q-.013-.168-.02-.337c0-.024,0-.048,0-.073,0-.116-.007-.232-.007-.349,0-.1,0-.195,0-.292,0-.03,0-.059,0-.089,0-.068.006-.137.01-.206q0-.05.006-.1c0-.067.01-.134.016-.2,0-.031.005-.062.008-.093q.013-.129.029-.258c0-.029.008-.059.012-.088q.014-.106.03-.212c.007-.046.015-.093.023-.139s.015-.087.023-.131.02-.109.031-.163c.006-.029.012-.057.018-.086q.067-.317.154-.626l.021-.073a9.964,9.964,0,0,1,8.785-7.155h0l.224-.014.032,0,.206-.008.049,0q.126,0,.253,0a10.015,10.015,0,0,1,1.847.172c.017,0,.034,0,.051.006a9.878,9.878,0,0,1,7.972,8.562c-.056-.016-.113-.03-.169-.045l-.092-.024-.186-.046-.118-.027-.215-.046-.226-.043-.155-.026-.163-.026-.147-.02-.21-.025-.1-.012c-.1-.01-.2-.018-.3-.026l-.109-.007-.23-.012-.1,0c-.108,0-.216-.006-.325-.006h0a10.405,10.405,0,0,0-4.986,1.266l-.133.074a10.372,10.372,0,0,0-1.705-.33c-1.571-.19-2.174-.539-2.174-1.238,0-.714.841-1.174,2.126-1.174a5.013,5.013,0,0,1,2.872.9l1.222-1.825a7.141,7.141,0,0,0-3.316-1.222v-1.508H65.005v1.571c-2,.365-3.285,1.6-3.285,3.317,0,1.937,1.247,2.965,4.036,3.338a10.532,10.532,0,0,0-1.625,2.169,5.3,5.3,0,0,1-1.364-.778l-1.349,1.888a6.671,6.671,0,0,0,1.806,1.023,10.437,10.437,0,0,0-.437,2.994c0,.082,0,.165,0,.248,0,.034,0,.069,0,.1S62.8,1237.56,62.8,1237.595Zm10.46,8.787a9.254,9.254,0,0,1-9.16-8.022q-.038-.287-.058-.577c0-.019,0-.039,0-.058q-.007-.116-.012-.231c0-.023,0-.046,0-.069,0-.094,0-.187,0-.28v0a9.239,9.239,0,0,1,4.078-7.66q.277-.187.567-.354t.593-.313q.1-.049.2-.1a9.186,9.186,0,0,1,3.8-.818l.228,0,.062,0,.166.006.067,0,.164.01.059,0,.174.016.047,0,.191.022.029,0q.109.014.217.03h0a9.241,9.241,0,0,1-1.406,18.374Z" transform="translate(-44.62 -1206.94)" fill="#e3be69"/>
        </g>
      </g>
    </g>
  </g>
  <g id="Grupo_142" data-name="Grupo 142" transform="translate(2.555 0.885)" style="mix-blend-mode: multiply;isolation: isolate">
    <path id="Caminho_1044" data-name="Caminho 1044" d="M331.405,918.334l-4.858,5.2-2.592-2.737a1.208,1.208,0,1,0-1.754,1.661l3.475,3.67a1.208,1.208,0,0,0,.877.377h0a1.208,1.208,0,0,0,.879-.384l5.735-6.144a1.208,1.208,0,1,0-1.766-1.648Z" transform="translate(-298.334 -890.918)" fill="#4c2b1d"/>
    <path id="Caminho_1045" data-name="Caminho 1045" d="M63.023,603.73a10.984,10.984,0,0,0-8.553-9.981,2.9,2.9,0,0,0-.406-.732h2.429a2.909,2.909,0,1,0,0-5.818H50.867a2.907,2.907,0,0,0-2.118-4.9H32.529a2.909,2.909,0,0,0,0,5.818h5.626a2.9,2.9,0,0,0-.187,3.762H35.532a27.076,27.076,0,0,1-2.909,7.589,2.906,2.906,0,0,1,0,4.681,2.905,2.905,0,0,1,0,4.68,2.912,2.912,0,0,0,2.909,2.909h8.323a10.939,10.939,0,0,0,4.978,3.215A10.289,10.289,0,1,0,63.023,603.73Zm-4.829-13.622a1.7,1.7,0,0,1-1.7,1.7H40.273a1.7,1.7,0,0,1,0-3.4h16.22A1.7,1.7,0,0,1,58.194,590.108Zm-27.366-4.9a1.7,1.7,0,0,1,1.7-1.7h16.22a1.7,1.7,0,1,1,0,3.4H32.529A1.7,1.7,0,0,1,30.828,585.209Zm4.7,7.879h16.22a1.7,1.7,0,0,1,1.133.429c-.124-.009-.249-.016-.374-.02l-.07,0c-.123,0-.246-.007-.37-.007q-.138,0-.276,0l-.066,0-.211.008-.061,0-.219.014-.04,0-.243.022h-.012a10.893,10.893,0,0,0-6.414,2.945h-9a1.7,1.7,0,1,1,0-3.4Zm5.737,9.419-.01.057c-.011.066-.023.132-.033.2,0,.03-.009.059-.013.089q-.012.084-.024.168-.007.054-.014.107-.009.076-.017.153-.006.058-.012.117c0,.049-.009.1-.013.148s-.007.08-.01.119-.007.1-.01.152,0,.076-.007.115c0,.057,0,.114-.007.171,0,.032,0,.064,0,.1q0,.134,0,.269c0,.1,0,.207,0,.31,0,.025,0,.049,0,.074q.011.309.039.615c0,.028.005.057.008.085q.013.134.029.267c0,.012,0,.024,0,.036h-5.65a1.7,1.7,0,0,1,0-3.4H41.28C41.276,602.468,41.273,602.488,41.27,602.507Zm-5.737-1.336a1.7,1.7,0,0,1,0-3.4h7.841a10.977,10.977,0,0,0-1.775,3.4Zm0,9.361a1.7,1.7,0,1,1,0-3.4h5.889a10.978,10.978,0,0,0,1.5,3.4Zm13.159,3.1a9.789,9.789,0,0,1-6.269-7.646v-.007q-.029-.182-.05-.367l0-.014c-.013-.11-.023-.22-.032-.331,0-.019,0-.038,0-.056q-.013-.165-.019-.331c0-.024,0-.048,0-.071,0-.114-.007-.228-.007-.343,0-.1,0-.192,0-.287,0-.029,0-.058,0-.088,0-.067.006-.135.01-.2q0-.049.006-.1.007-.1.016-.2c0-.031.005-.061.008-.092q.012-.127.028-.253c0-.029.008-.058.011-.087q.014-.1.03-.208c.007-.046.015-.091.023-.136s.015-.086.023-.128.02-.107.031-.161c.006-.028.012-.056.018-.085q.066-.311.151-.615l.021-.072a9.791,9.791,0,0,1,8.633-7.031h0l.22-.014.032,0,.2-.008.048,0q.124,0,.248,0a9.85,9.85,0,0,1,1.815.169c.017,0,.033,0,.05.006a9.707,9.707,0,0,1,7.833,8.413l-.166-.044-.09-.024-.183-.045-.116-.026L61,603.1c-.074-.015-.148-.029-.222-.043l-.152-.025-.161-.025-.144-.02-.207-.025-.1-.012c-.1-.01-.2-.018-.3-.025l-.107-.007-.226-.012-.1,0c-.106,0-.212-.005-.319-.005h0a10.226,10.226,0,0,0-4.9,1.244l-.131.073a10.17,10.17,0,0,0-1.676-.324c-1.544-.187-2.136-.53-2.136-1.216,0-.7.826-1.154,2.09-1.154a4.926,4.926,0,0,1,2.822.889l1.2-1.793a7.018,7.018,0,0,0-3.259-1.2v-1.481H50.86v1.544c-1.965.359-3.228,1.575-3.228,3.259,0,1.9,1.226,2.914,3.966,3.28a10.351,10.351,0,0,0-1.6,2.132,5.216,5.216,0,0,1-1.341-.765l-1.325,1.856a6.555,6.555,0,0,0,1.775,1.005,10.257,10.257,0,0,0-.429,2.942c0,.081,0,.162,0,.243,0,.034,0,.068,0,.1S48.69,613.6,48.691,613.632Zm10.279,8.634a9.094,9.094,0,0,1-9-7.883q-.037-.282-.057-.567c0-.019,0-.038,0-.057q-.007-.114-.011-.227c0-.023,0-.045,0-.068,0-.092,0-.184,0-.275v0a9.078,9.078,0,0,1,4.007-7.527q.272-.184.557-.348t.583-.308q.1-.048.2-.093a9.028,9.028,0,0,1,3.733-.8q.112,0,.224,0l.061,0,.163.006.066,0,.161.01.058,0,.171.015.046,0,.188.022.028,0c.071.009.142.019.213.03h0a9.081,9.081,0,0,1-1.382,18.056Z" transform="translate(-29.62 -582.3)" fill="#4c2b1d"/>
  </g>
</svg>
