<svg xmlns="http://www.w3.org/2000/svg" xmlns:xlink="http://www.w3.org/1999/xlink" width="35.048" height="40.998" viewBox="0 0 35.048 40.998">
  <defs>
    <clipPath id="clip-path">
      <rect id="Retângulo_586" data-name="Retângulo 586" width="20.55" height="40.998" fill="#e3be69"/>
    </clipPath>
  </defs>
  <g id="Grupo_178" data-name="Grupo 178" transform="translate(-100.853 -7.336)">
    <g id="Grupo_158" data-name="Grupo 158" transform="translate(100.853 7.336)">
      <g id="Grupo_146" data-name="Grupo 146" opacity="0.5">
        <g id="Grupo_144" data-name="Grupo 144" transform="translate(0 0)">
          <g id="Grupo_141" data-name="Grupo 141" transform="translate(0 0)" style="isolation: isolate">
            <g id="Grupo_139" data-name="Grupo 139" opacity="0.4" style="mix-blend-mode: screen;isolation: isolate">
              <g id="Grupo_138" data-name="Grupo 138" clip-path="url(#clip-path)">
                <g id="Grupo_137" data-name="Grupo 137" transform="translate(3.977 1.818)">
                  <path id="Caminho_1042" data-name="Caminho 1042" d="M331.274,1527.969l-4.791,5.133-2.556-2.7a1.191,1.191,0,1,0-1.73,1.639l3.428,3.619a1.191,1.191,0,0,0,.865.372h0a1.192,1.192,0,0,0,.867-.378l5.656-6.06a1.191,1.191,0,1,0-1.742-1.626Z" transform="translate(-299.849 -1502.121)" fill="#e3be69"/>
                  <path id="Caminho_1043" data-name="Caminho 1043" d="M71.61,1213.45a1.68,1.68,0,0,1-1.678,1.678h-16a1.677,1.677,0,1,1,0-3.355h16A1.679,1.679,0,0,1,71.61,1213.45Zm-26.99-4.832a1.68,1.68,0,0,1,1.678-1.678h16a1.678,1.678,0,0,1,0,3.355h-16A1.68,1.68,0,0,1,44.62,1208.618Zm4.64,7.771h16a1.673,1.673,0,0,1,1.117.423c-.122-.009-.245-.015-.368-.02l-.069,0c-.121,0-.243-.007-.365-.007q-.136,0-.272,0l-.065,0-.208.008-.06,0-.216.014-.04,0-.24.021h-.011a10.744,10.744,0,0,0-6.326,2.9H49.26a1.677,1.677,0,1,1,0-3.355Zm5.658,9.289-.01.056c-.011.065-.022.13-.032.195,0,.029-.009.058-.013.088-.008.055-.016.11-.023.165,0,.035-.009.07-.013.106-.006.051-.012.1-.017.151s-.008.077-.012.115-.009.1-.013.146-.007.078-.009.118-.007.1-.01.15,0,.075-.007.113c0,.056,0,.113-.006.169,0,.031,0,.063,0,.094q0,.133,0,.265c0,.1,0,.2,0,.306,0,.024,0,.049,0,.073q.011.3.038.606c0,.028.005.056.008.084q.013.132.029.263c0,.012,0,.024,0,.036H49.26a1.678,1.678,0,0,1,0-3.355h5.668C54.924,1225.64,54.921,1225.659,54.918,1225.678Zm-5.658-1.318a1.678,1.678,0,0,1,0-3.355h7.733a10.827,10.827,0,0,0-1.751,3.355Zm0,9.232a1.678,1.678,0,0,1,0-3.355h5.808a10.827,10.827,0,0,0,1.482,3.355Zm12.978,3.058a9.655,9.655,0,0,1-6.183-7.541v-.007q-.028-.18-.05-.362l0-.014c-.013-.108-.023-.217-.032-.327,0-.019,0-.037,0-.056q-.013-.162-.019-.327c0-.023,0-.047,0-.07,0-.113-.007-.225-.007-.339,0-.094,0-.189,0-.283,0-.029,0-.057,0-.086,0-.066.006-.133.009-.2,0-.032,0-.065.006-.1q.007-.1.015-.2c0-.03.005-.06.008-.09q.012-.125.028-.25c0-.029.007-.057.011-.085q.014-.1.03-.205c.007-.045.015-.09.022-.135s.015-.084.022-.127.02-.106.031-.158c.006-.028.012-.056.017-.083q.065-.307.149-.607l.02-.071A9.657,9.657,0,0,1,64.828,1218h0l.217-.014.031,0,.2-.008.047,0c.081,0,.163,0,.245,0a9.718,9.718,0,0,1,1.79.167c.017,0,.033,0,.049.006a9.573,9.573,0,0,1,7.726,8.3l-.164-.043-.089-.024-.181-.044-.115-.026-.208-.044-.219-.042-.15-.025-.158-.025-.142-.02-.2-.024-.1-.012q-.145-.015-.291-.025l-.105-.007-.223-.011-.1,0c-.1,0-.209-.005-.315-.005h0a10.085,10.085,0,0,0-4.833,1.227l-.129.072a10.038,10.038,0,0,0-1.653-.32c-1.522-.185-2.107-.523-2.107-1.2,0-.692.815-1.138,2.061-1.138a4.858,4.858,0,0,1,2.784.877l1.184-1.769a6.922,6.922,0,0,0-3.214-1.184v-1.461H64.377v1.523c-1.938.354-3.184,1.553-3.184,3.214,0,1.878,1.209,2.874,3.912,3.235a10.2,10.2,0,0,0-1.575,2.1,5.141,5.141,0,0,1-1.322-.754l-1.307,1.83a6.466,6.466,0,0,0,1.75.992,10.116,10.116,0,0,0-.423,2.9c0,.08,0,.16,0,.24,0,.033,0,.067,0,.1S62.236,1236.616,62.237,1236.65Zm10.137,8.516a8.969,8.969,0,0,1-8.878-7.775c-.024-.185-.043-.372-.056-.559,0-.019,0-.038,0-.056q-.007-.112-.011-.224c0-.022,0-.045,0-.068,0-.091,0-.181,0-.271v0a8.954,8.954,0,0,1,3.952-7.424q.268-.181.549-.343t.575-.3q.1-.047.2-.092a8.9,8.9,0,0,1,3.682-.792l.221,0,.061,0,.161.006.065,0,.159.01.057,0,.169.015.045,0,.185.021.028,0,.21.029h0a8.956,8.956,0,0,1-1.363,17.808Z" transform="translate(-44.62 -1206.94)" fill="#e3be69"/>
                </g>
              </g>
            </g>
          </g>
        </g>
      </g>
      <g id="Grupo_154" data-name="Grupo 154" transform="translate(3.044 0.538)">
        <path id="Caminho_1067" data-name="Caminho 1067" d="M53.657,932.856a2.8,2.8,0,0,0-.432-.82H55.57a2.809,2.809,0,1,0,0-5.618H50.138a2.807,2.807,0,0,0-2.046-4.731H32.429a2.809,2.809,0,1,0,0,5.618h5.432a2.8,2.8,0,0,0-.18,3.633H35.329a26.148,26.148,0,0,1-2.809,7.329,2.806,2.806,0,0,1,0,4.52,2.806,2.806,0,0,1,0,4.52,2.812,2.812,0,0,0,2.809,2.809h8.176a10.453,10.453,0,1,0,10.151-17.259Zm-12.472,7.053H35.329a1.643,1.643,0,0,1,0-3.285H42.9A10.436,10.436,0,0,0,41.185,939.908Zm-.484,3.181a10.687,10.687,0,0,0,.085,1.339H35.329a1.643,1.643,0,0,1,0-3.285h5.55A10.67,10.67,0,0,0,40.7,943.089Zm16.512-13.862a1.644,1.644,0,0,1-1.643,1.642H39.907a1.642,1.642,0,1,1,0-3.285H55.57A1.644,1.644,0,0,1,57.213,929.226Zm-26.426-4.731a1.644,1.644,0,0,1,1.643-1.643H48.092a1.643,1.643,0,0,1,0,3.285H32.429A1.644,1.644,0,0,1,30.787,924.495Zm4.543,7.609H50.993a1.638,1.638,0,0,1,1.094.414q-.393-.029-.786-.029a10.531,10.531,0,0,0-7.284,2.9H35.329a1.642,1.642,0,1,1,0-3.285Zm0,16.844a1.642,1.642,0,1,1,0-3.285h5.686a10.6,10.6,0,0,0,1.451,3.285ZM51.17,952.3a9.292,9.292,0,0,1-9.054-11.366c.018-.076.036-.152.055-.227v0l.015-.056,0-.006a9.433,9.433,0,0,1,2.18-3.95l.042-.045.105-.11A9.286,9.286,0,1,1,51.17,952.3Z" transform="translate(-29.62 -921.686)" fill="#4c2b1d" opacity="0.5"/>
        <text id="_" data-name=" " transform="translate(20.135 19.707)" fill="#4c2b1d" font-size="1" font-family="Nexa-Heavy, Nexa" font-weight="800"><tspan x="0" y="0"> </tspan></text>
        <text id="_2" data-name="$" transform="translate(17.279 25.804)" fill="#4c2b1d" font-size="14" font-family="Nexa-Heavy, Nexa" font-weight="800" opacity="0.5"><tspan x="0" y="0">$</tspan></text>
      </g>
    </g>
  </g>
</svg>
