<svg id="Grupo_147" data-name="Grupo 147" xmlns="http://www.w3.org/2000/svg" width="36.769" height="40.763" viewBox="0 0 36.769 40.763">
  <g id="Grupo_143" data-name="Grupo 143">
    <g id="Grupo_133" data-name="Grupo 133" transform="translate(1.735 1.237)" opacity="0.4" style="isolation: isolate">
      <path id="Caminho_1031" data-name="Caminho 1031" d="M747.144,1248.8l-.712.057a.623.623,0,0,1-.623-.629s0-.011,0-.017a2.4,2.4,0,0,0-4.679,0c0,.008,0,.015,0,.023a.624.624,0,0,1-.624.623h-2.632v3.693l9.269-.057Z" transform="translate(-731.929 -1246.363)" fill="#e3be69"/>
      <path id="Caminho_1032" data-name="Caminho 1032" d="M676.056,1313.953h-3.921a.624.624,0,1,1,0-1.247h3.921v-5.35h-3.921a.624.624,0,1,1,0-1.247h3.921v-5.095h-9.407l-.064,0a.624.624,0,0,1-.453-.272c-.011-.017-.022-.034-.031-.051a.625.625,0,0,1-.075-.3v-2.532h-3.449a1.708,1.708,0,0,0-1.707,1.706v23.974a1.708,1.708,0,0,0,1.707,1.707h13.479Zm-6.7,4.378-2.963,3.175a.624.624,0,0,1-.454.2h0a.624.624,0,0,1-.453-.195l-1.8-1.9a.624.624,0,0,1,.906-.857l1.34,1.415,2.511-2.69a.624.624,0,1,1,.912.851Zm0-6.64-2.963,3.175a.624.624,0,0,1-.454.2h0a.622.622,0,0,1-.453-.195l-1.8-1.9a.624.624,0,0,1,.906-.858l1.34,1.415,2.511-2.69a.624.624,0,0,1,.912.851Zm0-6.043-2.963,3.175a.624.624,0,0,1-.454.2h0a.623.623,0,0,1-.453-.195l-1.8-1.9a.624.624,0,0,1,.906-.858l1.34,1.415,2.511-2.69a.624.624,0,1,1,.912.851Z" transform="translate(-660.87 -1294.475)" fill="#e3be69"/>
    </g>
    <g id="Grupo_135" data-name="Grupo 135">
      <g id="Grupo_134" data-name="Grupo 134" style="mix-blend-mode: multiply;isolation: isolate">
        <path id="Caminho_1033" data-name="Caminho 1033" d="M672.453,602.692a10.23,10.23,0,0,0-1.069.056V589.239a2.836,2.836,0,0,0-2.833-2.833h-3.419v-1.113a.6.6,0,0,0-.6-.6h-2.59a3.573,3.573,0,0,0-6.746,0h-2.59a.6.6,0,0,0-.6.6v1.113H648.7a2.836,2.836,0,0,0-2.833,2.833V612.23a2.836,2.836,0,0,0,2.833,2.833h13.8a10.186,10.186,0,1,0,9.949-12.371Zm-19.247-16.8h2.524a.6.6,0,0,0,.6-.6c0-.007,0-.015,0-.022a2.305,2.305,0,0,1,4.487,0c0,.006,0,.013,0,.017a.6.6,0,0,0,.6.6h2.524v3.541h-10.73v-3.541Zm9.109,27.975H648.7a1.638,1.638,0,0,1-1.637-1.637V589.239A1.638,1.638,0,0,1,648.7,587.6h3.307v2.429a.6.6,0,0,0,0,.061.588.588,0,0,0,.069.224.557.557,0,0,0,.03.049.6.6,0,0,0,.435.261.565.565,0,0,0,.061,0h11.926a.559.559,0,0,0,.061,0,.6.6,0,0,0,.435-.261c.011-.016.021-.032.03-.049a.6.6,0,0,0,.069-.224c0-.02,0-.041,0-.061V587.6h3.419a1.638,1.638,0,0,1,1.637,1.637v13.706a10.151,10.151,0,0,0-6.89,5.456.6.6,0,0,0-.432-.186h-5a.6.6,0,1,0,0,1.2h5a10.172,10.172,0,0,0-.549,2.417c0,.01,0,.021,0,.031q-.01.1-.018.206c0,.022,0,.043,0,.065,0,.058-.008.117-.011.176,0,.026,0,.053,0,.079,0,.057,0,.115-.007.172,0,.025,0,.05,0,.076,0,.078,0,.157,0,.235,0,0,0,.007,0,.01s0,.026,0,.039q0,.106,0,.213c0,.057,0,.114.006.171,0,.026,0,.052,0,.078,0,.069.008.138.013.207,0,.014,0,.027,0,.04q.008.108.018.216C662.314,613.849,662.314,613.858,662.315,613.867Zm10.138,8a9,9,0,0,1-8.871-7.53c-.038-.231-.067-.465-.087-.7,0-.008,0-.016,0-.023q-.014-.171-.021-.342c0-.018,0-.036,0-.054,0-.114-.007-.228-.007-.341,0,0,0-.008,0-.012,0-.069,0-.138,0-.207,0-.023,0-.045,0-.068,0-.051,0-.1.006-.153,0-.024,0-.047,0-.071,0-.051.006-.1.01-.154,0-.02,0-.041,0-.061q.007-.085.015-.17c0-.014,0-.027,0-.041.007-.069.015-.137.024-.206v0a8.99,8.99,0,1,1,8.917,10.134Z" transform="translate(-645.87 -582.3)" fill="#4c2b1d"/>
        <path id="Caminho_1034" data-name="Caminho 1034" d="M917.53,918.33l-4.809,5.153-2.566-2.71a1.2,1.2,0,1,0-1.737,1.645l3.441,3.633a1.2,1.2,0,0,0,.868.373h0a1.2,1.2,0,0,0,.87-.38l5.677-6.082a1.2,1.2,0,0,0-1.749-1.632Z" transform="translate(-887.183 -891.188)" fill="#4c2b1d"/>
        <path id="Caminho_1035" data-name="Caminho 1035" d="M697.464,802.747l-2.408,2.579-1.285-1.357a.6.6,0,0,0-.868.822l1.722,1.819a.6.6,0,0,0,.434.187h0a.6.6,0,0,0,.435-.19l2.842-3.044a.6.6,0,1,0-.874-.816Z" transform="translate(-689.003 -784.995)" fill="#4c2b1d"/>
        <path id="Caminho_1036" data-name="Caminho 1036" d="M697.464,730.059l-2.408,2.579-1.285-1.357a.6.6,0,0,0-.868.822l1.722,1.819a.6.6,0,0,0,.434.187h0a.6.6,0,0,0,.435-.19l2.842-3.044a.6.6,0,1,0-.874-.816Z" transform="translate(-689.003 -718.103)" fill="#4c2b1d"/>
        <path id="Caminho_1037" data-name="Caminho 1037" d="M697.464,882.6l-2.408,2.579-1.285-1.357a.6.6,0,1,0-.868.822l1.722,1.818a.6.6,0,0,0,.434.187h0a.6.6,0,0,0,.435-.19l2.842-3.044a.6.6,0,1,0-.874-.816Z" transform="translate(-689.003 -858.486)" fill="#4c2b1d"/>
        <path id="Caminho_1038" data-name="Caminho 1038" d="M789.458,749.228h9.128a.6.6,0,0,0,0-1.2h-9.128a.6.6,0,1,0,0,1.2Z" transform="translate(-777.459 -734.818)" fill="#4c2b1d"/>
        <path id="Caminho_1039" data-name="Caminho 1039" d="M789.458,828.576h9.128a.6.6,0,0,0,0-1.2h-9.128a.6.6,0,1,0,0,1.2Z" transform="translate(-777.459 -807.839)" fill="#4c2b1d"/>
      </g>
    </g>
  </g>
</svg>
