<svg xmlns="http://www.w3.org/2000/svg" width="74.896" height="82.617" viewBox="0 0 74.896 82.617">
  <g id="Grupo_174" data-name="Grupo 174" transform="translate(1 1.117)">
    <g id="Grupo_145" data-name="Grupo 145" transform="translate(3.281 4.5)">
      <g id="Grupo_131" data-name="Grupo 131" style="mix-blend-mode: multiply;isolation: isolate">
        <g id="Grupo_132" data-name="Grupo 132" transform="translate(0 2.49)" opacity="0.4" style="isolation: isolate">
          <path id="Caminho_1026" data-name="Caminho 1026" d="M2508.548,1222.788V1217.6l-24.724-11.872-9.01,4.529L2504,1224.938Z" transform="translate(-2473.456 -1195.468)" fill="#e3be69"/>
          <path id="Caminho_1027" data-name="Caminho 1027" d="M2626.238,1138.62l-3.979-1.947-8.825,4.436,12.8,5.7Z" transform="translate(-2591.145 -1136.673)" fill="#e3be69"/>
          <path id="Caminho_1028" data-name="Caminho 1028" d="M2573.588,1181.618l-15.42-6.859-6.746,3.391,22.167,10.645Z" transform="translate(-2538.496 -1169.009)" fill="#e3be69"/>
          <path id="Caminho_1029" data-name="Caminho 1029" d="M2683.387,1335.3l-2.641,1.249.643,35.269,2-1Z" transform="translate(-2648.294 -1306.065)" fill="#e3be69"/>
          <path id="Caminho_1030" data-name="Caminho 1030" d="M2495.83,1263.087l-30.02-15.1.538,34.758,30.291,14.926-.628-34.513A1.156,1.156,0,0,1,2495.83,1263.087Zm-20.41,19.364a1.13,1.13,0,0,1-1.5.558l-5.062-2.321a1.132,1.132,0,1,1,.943-2.059l5.063,2.321A1.132,1.132,0,0,1,2475.42,1282.451Zm4.069-1.567a1.132,1.132,0,0,1-1.03.661,1.118,1.118,0,0,1-.471-.1l-9.131-4.185a1.132,1.132,0,1,1,.943-2.059l9.131,4.186A1.131,1.131,0,0,1,2479.489,1280.883Z" transform="translate(-2465.811 -1231.931)" fill="#e3be69"/>
        </g>
        <g id="Grupo_155" data-name="Grupo 155" transform="translate(0.106)">
          <path id="Caminho_1068" data-name="Caminho 1068" d="M2542.806-515.529c0-.012-.005-.024-.007-.036-.006-.036-.013-.073-.022-.108-.005-.017-.011-.034-.017-.051s-.02-.059-.031-.087-.016-.035-.025-.053-.026-.052-.041-.077-.02-.034-.032-.051-.032-.047-.05-.07-.025-.032-.039-.047-.039-.042-.059-.062-.03-.029-.045-.042-.046-.037-.069-.055l-.048-.035c-.006,0-.01-.008-.016-.012-.023-.014-.046-.026-.071-.038s-.023-.015-.036-.021l-32.3-15.8a1.1,1.1,0,0,0-.98.005l-31.432,15.8-.014.007a1.225,1.225,0,0,0-.119.071h0a.927.927,0,0,0-.106.085l-.027.025a1.057,1.057,0,0,0-.077.081l-.017.019a1.315,1.315,0,0,0-.079.109l-.013.024q-.029.049-.054.1c0,.008-.008.017-.012.025a.938.938,0,0,0-.047.131l0,.005a.962.962,0,0,0-.027.128c0,.012,0,.024,0,.036a.8.8,0,0,0-.008.114c0,.007,0,.014,0,.021v.017l.564,36.355a1.1,1.1,0,0,0,.614.972l31.737,15.639.036.015.053.022c.027.011.054.02.082.028l.046.014c.034.008.067.015.1.02l.033.006a1.086,1.086,0,0,0,.136.009h.021a1.057,1.057,0,0,0,.122-.008c.017,0,.033-.006.05-.009s.062-.011.092-.019.037-.012.054-.017.056-.018.082-.029.039-.018.057-.027.032-.014.047-.022l31.434-17.076a1.1,1.1,0,0,0,.577-.969v-34.918A1.3,1.3,0,0,0,2542.806-515.529Zm-13.395,16.614-7.218,3.424-.011-9.444,6.95-3.284Zm-31.136-25.435,30.784,13.693,0,.033-7.891,3.729-29.466-14.15Zm11.145-5.6,29.748,14.552-7.956,3.759a1.1,1.1,0,0,0-.622-.75l-29.765-13.24Zm-20.207,10.157,29.387,14.112-9.734,4.6-28.43-14.3Zm-10.1,6.215,29.243,14.71a1.132,1.132,0,0,0,.176.068l.613,33.622-29.508-14.54Zm61.5,32.458-29.26,15.9-.624-34.294,9.252-4.372.012,10.146a1.1,1.1,0,0,0,.513.932,1.106,1.106,0,0,0,.59.17,1.1,1.1,0,0,0,.472-.106l9.444-4.48a1.1,1.1,0,0,0,.629-1.03l-.329-10.987,9.3-4.395Z" transform="translate(-2476.877 532.287)" fill="#4c2b1d"/>
          <path id="Caminho_1069" data-name="Caminho 1069" d="M2518.432-221.345l-8.991-4.121a1.115,1.115,0,0,0-1.478.549,1.115,1.115,0,0,0,.549,1.478l8.991,4.121a1.108,1.108,0,0,0,.463.1,1.114,1.114,0,0,0,1.014-.651A1.115,1.115,0,0,0,2518.432-221.345Z" transform="translate(-2503.255 270.634)" fill="#4c2b1d"/>
          <path id="Caminho_1070" data-name="Caminho 1070" d="M2514.426-200.45l-4.985-2.285a1.115,1.115,0,0,0-1.478.549,1.115,1.115,0,0,0,.549,1.478l4.984,2.285a1.113,1.113,0,0,0,.464.1,1.114,1.114,0,0,0,1.014-.651A1.114,1.114,0,0,0,2514.426-200.45Z" transform="translate(-2503.255 251.259)" fill="#4c2b1d"/>
        </g>
      </g>
    </g>
    <path id="Caminho_1074" data-name="Caminho 1074" d="M603.75,2244.173,639.907,2226l36.74,18.173v40.385l-36.74,20.192-36.157-17.308Z" transform="translate(-603.75 -2226)" fill="none" stroke="#e3be69" stroke-width="2"/>
    <circle id="Elipse_1" data-name="Elipse 1" cx="16.5" cy="16.5" r="16.5" transform="translate(23.547 46.5)" fill="#fff" stroke="#e3be69" stroke-width="4"/>
    <path id="Caminho_1013" data-name="Caminho 1013" d="M2175.132,918.5a2.04,2.04,0,0,0-2.883.1l-8.2,8.788-4.377-4.622a2.04,2.04,0,1,0-2.962,2.805l5.869,6.2a2.039,2.039,0,0,0,1.48.637h.008a2.041,2.041,0,0,0,1.484-.648l9.683-10.375A2.039,2.039,0,0,0,2175.132,918.5Z" transform="translate(-2125.995 -861.38)" fill="#e3be69" style="mix-blend-mode: multiply;isolation: isolate"/>
  </g>
</svg>
