<svg id="Grupo_84" data-name="Grupo 84" xmlns="http://www.w3.org/2000/svg" width="37.443" height="37.011" viewBox="0 0 37.443 37.011">
  <path id="Caminho_965" data-name="Caminho 965" d="M366.54,3604.854v-9.265a20.366,20.366,0,0,0-5.162.878q-.353.108-.7.23a27.673,27.673,0,0,0,1.974,3.548c.48.73.984,1.42,1.5,2.062q.387.482.785.926A20.882,20.882,0,0,0,366.54,3604.854Z" transform="translate(-348.681 -3568.053)" fill="#281815"/>
  <path id="Caminho_966" data-name="Caminho 966" d="M360.616,3582.074q.415-.062.833-.11.837-.1,1.689-.127v-6.414h-8.166a22.313,22.313,0,0,0,.5,3.938,25.071,25.071,0,0,0,1.124,3.719q.387-.137.781-.26.788-.245,1.6-.433T360.616,3582.074Z" transform="translate(-345.279 -3556.027)" fill="#281815"/>
  <path id="Caminho_967" data-name="Caminho 967" d="M353.767,3606.027c-.473-.582-.934-1.2-1.377-1.846s-.867-1.326-1.269-2.033q-.3-.53-.583-1.081t-.543-1.12c-.2.092-.4.2-.6.3a18.8,18.8,0,0,0-3.9,2.563q.495.467,1.022.9a18.674,18.674,0,0,0,8.7,3.958C354.726,3607.155,354.24,3606.608,353.767,3606.027Z" transform="translate(-339.628 -3570.652)" fill="#281815"/>
  <path id="Caminho_968" data-name="Caminho 968" d="M338.024,3585.152a20.734,20.734,0,0,1,2.631-1.422,25.422,25.422,0,0,1-1.73-8.308h-7.966a18.6,18.6,0,0,0,2.412,8.359,18.861,18.861,0,0,0,2.255,3.16A20.437,20.437,0,0,1,338.024,3585.152Z" transform="translate(-330.959 -3556.027)" fill="#281815"/>
  <path id="Caminho_969" data-name="Caminho 969" d="M341.026,3544.359a21.506,21.506,0,0,1-2.619-1.229q-.629-.349-1.229-.738t-1.17-.818q-.277.3-.542.6a18.836,18.836,0,0,0-2.3,3.347,18.591,18.591,0,0,0-2.207,7.987h7.974a25.205,25.205,0,0,1,.383-3.528q.21-1.16.526-2.293A25.546,25.546,0,0,1,341.026,3544.359Z" transform="translate(-330.959 -3535.841)" fill="#281815"/>
  <path id="Caminho_970" data-name="Caminho 970" d="M367.248,3528.67q-.42.393-.819.8a26.553,26.553,0,0,0-4.566,6.191q.643.187,1.3.334a22.5,22.5,0,0,0,4.082.524Z" transform="translate(-349.389 -3528.146)" fill="#281815"/>
  <path id="Caminho_971" data-name="Caminho 971" d="M356.192,3527.37a18.538,18.538,0,0,0-3.319.817q-.639.221-1.258.488t-1.213.574q-.3.154-.588.318a18.878,18.878,0,0,0-3.243,2.314,19.4,19.4,0,0,0,4.506,2.442q.242-.469.5-.93a27.689,27.689,0,0,1,2.407-3.555A29.658,29.658,0,0,1,356.192,3527.37Z" transform="translate(-340.27 -3527.37)" fill="#281815"/>
  <path id="Caminho_972" data-name="Caminho 972" d="M363.158,3558.47V3550.9q-.8-.028-1.583-.105a23.951,23.951,0,0,1-3.08-.506q-.753-.175-1.485-.4a23.63,23.63,0,0,0-1.808,6.366q-.15,1.1-.2,2.215Z" transform="translate(-345.3 -3540.8)" fill="#281815"/>
  <path id="Caminho_973" data-name="Caminho 973" d="M379.479,3575.423v6.418q.878.036,1.733.142t1.682.271a22.928,22.928,0,0,1,3.163.874,24.41,24.41,0,0,0,1.478-5.7q.129-.992.167-2Z" transform="translate(-359.894 -3556.027)" fill="#281815"/>
  <path id="Caminho_974" data-name="Caminho 974" d="M384.2,3550.167a24.194,24.194,0,0,1-4.723.655v7.576h8.209q-.046-1.124-.2-2.229-.076-.552-.177-1.1-.2-1.094-.509-2.162a23.856,23.856,0,0,0-1.141-3.14Q384.949,3549.987,384.2,3550.167Z" transform="translate(-359.894 -3540.728)" fill="#281815"/>
  <path id="Caminho_975" data-name="Caminho 975" d="M384.274,3596.414a20.54,20.54,0,0,0-4.795-.812v9.31a25.754,25.754,0,0,0,5.893-8.149C385.014,3596.637,384.646,3596.522,384.274,3596.414Z" transform="translate(-359.894 -3568.06)" fill="#281815"/>
  <path id="Caminho_976" data-name="Caminho 976" d="M381.824,3531.008q-.36-.427-.74-.844-.761-.833-1.6-1.621v7.895a22.1,22.1,0,0,0,2.7-.283c.258-.043.513-.089.766-.141.668-.135,1.319-.3,1.948-.482A26.057,26.057,0,0,0,381.824,3531.008Z" transform="translate(-359.894 -3528.07)" fill="#281815"/>
  <path id="Caminho_977" data-name="Caminho 977" d="M393.385,3604.19q.54-.41,1.049-.858.254-.223.5-.456a17.291,17.291,0,0,0-4.479-2.8,27.886,27.886,0,0,1-5.188,7.65,18.576,18.576,0,0,0,5.239-1.737q.61-.308,1.193-.659A18.917,18.917,0,0,0,393.385,3604.19Z" transform="translate(-363.346 -3570.731)" fill="#281815"/>
  <path id="Caminho_978" data-name="Caminho 978" d="M401.547,3575.423c-.023.7-.079,1.389-.161,2.071a25.2,25.2,0,0,1-.728,3.674q-.16.582-.344,1.149-.137.423-.286.837c-.075.208-.148.417-.228.623a21.684,21.684,0,0,1,2.146,1.094q.333.194.648.395a16.237,16.237,0,0,1,2.206,1.665,18.677,18.677,0,0,0,4.512-9.876q.107-.8.145-1.63Z" transform="translate(-372.013 -3556.027)" fill="#281815"/>
  <path id="Caminho_979" data-name="Caminho 979" d="M385,3527.489c-.186-.035-.373-.068-.561-.1a28.2,28.2,0,0,1,5.08,6.9c.6-.228,1.171-.474,1.711-.733a17.643,17.643,0,0,0,2.518-1.457c.089-.062.18-.125.264-.187A18.7,18.7,0,0,0,385,3527.489Z" transform="translate(-362.852 -3527.383)" fill="#281815"/>
  <path id="Caminho_980" data-name="Caminho 980" d="M408.906,3553.533a18.605,18.605,0,0,0-.907-4.961q-.129-.393-.274-.779a18.791,18.791,0,0,0-3.852-6.183q-.483.373-1.043.738-.28.182-.577.359a21.831,21.831,0,0,1-3.079,1.51c-.1.04-.2.081-.3.12a25.273,25.273,0,0,1,2.112,9.2Z" transform="translate(-371.462 -3535.863)" fill="#281815"/>
</svg>
