<svg xmlns="http://www.w3.org/2000/svg" width="54.237" height="37.017" viewBox="0 0 54.237 37.017"><defs><clipPath id="a"><path data-name="Retângulo 587" fill="#e3be69" stroke="#707070" d="M0 0h24.011v37.017H0z"/></clipPath></defs><g data-name="Grupo 151"><path data-name="Caminho 1057" d="M53.305 18.886a5.943 5.943 0 0 0-3.942-1.257l-.089-4.7a3.873 3.873 0 0 0-3.855-3.77h-.028l-9.356.059V5.843a4.057 4.057 0 0 0-4.053-4.053H11.35a4.058 4.058 0 0 0-4.053 4.053v3.193h-3.5a.673.673 0 1 0 0 1.346h3.5v3.2H.674a.673.673 0 1 0 0 1.346h6.623v7.283a.673.673 0 0 0 .673.673h.889v5.7a2.812 2.812 0 0 0 2.809 2.809h2.971a5.145 5.145 0 0 0 10.214 0h10.159a5.145 5.145 0 0 0 10.214 0h1.515c1.847 0 6.75-.13 6.8-.131a.673.673 0 0 0 .655-.671l.033-9.133a3.145 3.145 0 0 0-.924-2.572zm-5.34-3.962l.052 2.747a.628.628 0 0 0-.068 0h-5.833v-2.742h5.85zm-39.323 0h11.711a.673.673 0 1 0 0-1.346H8.64v-3.2h14.838a.673.673 0 1 0 0-1.346H8.64V5.839a2.71 2.71 0 0 1 2.707-2.707h20.632a2.71 2.71 0 0 1 2.707 2.707v15.692H8.64zm11.1 19.642a3.8 3.8 0 1 1 3.8-3.8 3.8 3.8 0 0 1-3.797 3.801zm20.373 0a3.8 3.8 0 1 1 3.8-3.8 3.8 3.8 0 0 1-3.797 3.801zm12.766-13.181l-.032 8.542c-1.4.035-4.685.114-6.111.114h-.9a5.788 5.788 0 0 0-11.377 0h-9.027a5.788 5.788 0 0 0-11.377 0h-2.389a1.464 1.464 0 0 1-1.463-1.463v-5.7h25.157a.673.673 0 0 0 .673-.673V10.56l9.365-.059a2.523 2.523 0 0 1 2.528 2.452l.012.623h-6.5a.674.674 0 0 0-.674.673v4.089a.673.673 0 0 0 .674.673h6.506a.783.783 0 0 1 .818-.018c.689-.065 2.681-.036 3.6.86a1.841 1.841 0 0 1 .52 1.532z" fill="#4c2b1d" opacity=".5" style="mix-blend-mode:multiply;isolation:isolate"/><g data-name="Grupo de máscara 8" transform="translate(5.891)" opacity=".4" clip-path="url(#a)" style="isolation:isolate"><path data-name="Caminho 1058" d="M42.073 14.949l.052 2.747a.635.635 0 0 0-.068 0h-5.833v-2.742h5.85zm-39.323 0h11.711a.673.673 0 1 0 0-1.346H2.75v-3.2h14.838a.673.673 0 1 0 0-1.346H2.75V5.864a2.71 2.71 0 0 1 2.707-2.707h20.632a2.71 2.71 0 0 1 2.707 2.707v15.692H2.751zm11.1 19.642a3.8 3.8 0 1 1 3.8-3.8 3.8 3.8 0 0 1-3.797 3.8zm20.373 0a3.8 3.8 0 1 1 3.8-3.8 3.8 3.8 0 0 1-3.797 3.8zM46.997 21.41l-.032 8.542c-1.4.035-4.685.114-6.111.114h-.9a5.788 5.788 0 0 0-11.377 0H19.55a5.788 5.788 0 0 0-11.377 0h-2.39a1.464 1.464 0 0 1-1.462-1.463v-5.7h25.157a.673.673 0 0 0 .673-.673V10.586l9.365-.06a2.524 2.524 0 0 1 2.529 2.452l.012.623h-6.5a.673.673 0 0 0-.673.673v4.088a.673.673 0 0 0 .673.673h6.506a.78.78 0 0 1 .818-.018c.689-.065 2.681-.036 3.6.86a1.841 1.841 0 0 1 .516 1.533z" fill="#e3be69" opacity=".4" style="mix-blend-mode:screen;isolation:isolate"/></g></g></svg>