<svg xmlns="http://www.w3.org/2000/svg" width="48.401" height="39.306" viewBox="0 0 48.401 39.306"><defs><clipPath id="a"><path data-name="Retângulo 587" transform="translate(-.14)" fill="#e3be69" d="M0 0h21v32H0z"/></clipPath></defs><g data-name="Grupo 175"><g data-name="Grupo 157"><path data-name="Caminho 1057" d="M46.779 16.11a5.216 5.216 0 0 0-3.459-1.1l-.078-4.127a3.4 3.4 0 0 0-3.384-3.309h-.025l-8.21.052V4.665a3.561 3.561 0 0 0-3.557-3.557H9.96a3.561 3.561 0 0 0-3.557 3.557v2.8H3.335a.591.591 0 0 0 0 1.181h3.068v2.806H.591a.591.591 0 0 0 0 1.182h5.812v6.391a.591.591 0 0 0 .591.591h.78v5a2.468 2.468 0 0 0 2.465 2.465h2.607a4.515 4.515 0 0 0 8.963 0h8.915a4.515 4.515 0 0 0 8.964 0h1.33c1.621 0 5.924-.114 5.967-.115a.59.59 0 0 0 .575-.588l.029-8.015a2.764 2.764 0 0 0-.81-2.253zm-4.686-3.477l.045 2.411a.544.544 0 0 0-.06 0h-5.119v-2.406h5.134zm-34.508 0h10.277a.591.591 0 0 0 0-1.182H7.585V8.645h13.021a.591.591 0 1 0 0-1.181H7.585v-2.8A2.378 2.378 0 0 1 9.96 2.289h18.106a2.379 2.379 0 0 1 2.375 2.375v13.771H7.584zm9.743 17.237a3.334 3.334 0 1 1 3.334-3.334 3.338 3.338 0 0 1-3.334 3.335zm17.878 0a3.334 3.334 0 1 1 3.334-3.334 3.338 3.338 0 0 1-3.334 3.335zm11.2-11.567l-.028 7.5c-1.23.031-4.111.1-5.363.1h-.793a5.079 5.079 0 0 0-9.984 0h-7.922a5.079 5.079 0 0 0-9.984 0h-2.1a1.285 1.285 0 0 1-1.283-1.283v-5h22.077a.591.591 0 0 0 .591-.591V8.81l8.219-.052a2.214 2.214 0 0 1 2.219 2.152l.01.546h-5.7a.591.591 0 0 0-.591.591v3.588a.591.591 0 0 0 .591.59h5.71a.685.685 0 0 1 .718-.016 4.67 4.67 0 0 1 3.163.754 1.615 1.615 0 0 1 .453 1.341z" fill="#4c2b1d" style="mix-blend-mode:multiply;isolation:isolate"/><g data-name="Grupo de máscara 8" transform="translate(5.408)" clip-path="url(#a)" style="isolation:isolate"><path data-name="Caminho 1058" d="M36.685 12.655l.046 2.41H31.552v-2.407h5.134zm-34.508 0h10.277a.591.591 0 1 0 0-1.181H2.177V8.668h13.021a.591.591 0 0 0 0-1.182H2.177v-2.8a2.378 2.378 0 0 1 2.375-2.375h18.106a2.378 2.378 0 0 1 2.375 2.375v13.771H2.177zm9.743 17.237a3.334 3.334 0 1 1 3.334-3.334 3.338 3.338 0 0 1-3.331 3.335zm17.879 0a3.334 3.334 0 1 1 3.335-3.334 3.338 3.338 0 0 1-3.336 3.335zm11.2-11.567l-.029 7.5c-1.23.031-4.111.1-5.363.1h-.792a5.079 5.079 0 0 0-9.984 0h-7.922a5.079 5.079 0 0 0-9.984 0h-2.1a1.285 1.285 0 0 1-1.283-1.284v-5h22.081a.591.591 0 0 0 .591-.591V8.831l8.219-.052a2.214 2.214 0 0 1 2.219 2.152l.01.547h-5.7a.591.591 0 0 0-.591.591v3.588a.591.591 0 0 0 .591.591h5.71a.685.685 0 0 1 .718-.016 4.671 4.671 0 0 1 3.163.755 1.616 1.616 0 0 1 .449 1.339z" fill="#e3be69" opacity=".4" style="mix-blend-mode:screen;isolation:isolate"/></g></g><path data-name="Caminho 1072" d="M4.17 34.839h43.466" fill="none" stroke="#4c2b1d" stroke-linecap="round"/><path data-name="Caminho 1073" d="M43.704 31.046l4.2 3.717-4.2 3.837" fill="none" stroke="#4c2b1d" stroke-linecap="round" stroke-linejoin="round"/></g></svg>