<svg xmlns="http://www.w3.org/2000/svg" width="36.076" height="38.237" viewBox="0 0 36.076 38.237"><g data-name="Grupo 131" style="mix-blend-mode:multiply;isolation:isolate" opacity=".5"><g data-name="Grupo 132" opacity=".4" style="isolation:isolate" fill="#e3be69"><path data-name="Caminho 1026" d="M18.965 16.201v-2.8L5.603 6.985.734 9.433l15.772 7.934z"/><path data-name="Caminho 1027" d="M18.966 2.398l-2.151-1.052-4.769 2.4 6.92 3.078z"/><path data-name="Caminho 1028" d="M18.964 8.161L10.63 4.454 6.984 6.287l11.98 5.753z"/><path data-name="Caminho 1029" d="M18.966 17.55l-1.427.675.347 19.061 1.08-.543z"/><path data-name="Caminho 1030" d="M16.224 18.59L0 10.429l.291 18.785 16.371 8.067-.34-18.653a.611.611 0 0 1-.098-.038zM5.189 29.055a.611.611 0 0 1-.811.3l-2.736-1.254a.612.612 0 1 1 .51-1.113l2.736 1.254a.612.612 0 0 1 .301.813zm2.2-.847a.612.612 0 0 1-.557.357.606.606 0 0 1-.254-.056l-4.935-2.262a.612.612 0 1 1 .51-1.113l4.935 2.262a.611.611 0 0 1 .301.812z"/></g><g data-name="Grupo 155" fill="#4c2b1d"><path data-name="Caminho 1068" d="M36.071 9.154v-.02a.47.47 0 0 0-.012-.059l-.009-.028-.017-.048-.014-.029-.022-.042-.018-.028a.453.453 0 0 0-.027-.038l-.021-.026-.032-.034-.025-.023-.038-.03-.026-.019-.009-.006-.039-.021-.02-.011L18.099.061a.6.6 0 0 0-.535 0L.394 8.692H.387a.677.677 0 0 0-.065.039.5.5 0 0 0-.058.047l-.015.014a.541.541 0 0 0-.042.044l-.009.01a.674.674 0 0 0-.043.06l-.007.013a.586.586 0 0 0-.029.055l-.006.014a.521.521 0 0 0-.026.072.548.548 0 0 0-.015.07v.02a.437.437 0 0 0 0 .062V9.233L.38 29.092a.6.6 0 0 0 .335.531l17.337 8.543.02.008.029.012.045.015.025.007.055.011h.018a.588.588 0 0 0 .074 0h.012a.577.577 0 0 0 .066 0l.027-.005.05-.011.03-.009.045-.016.031-.015.026-.012 17.17-9.327a.6.6 0 0 0 .315-.53V9.22a.712.712 0 0 0-.019-.066zm-7.317 9.075l-3.943 1.87-.006-5.159 3.8-1.794zM11.745 4.335l16.816 7.479v.018l-4.311 2.037-16.1-7.73zm6.088-3.06l16.25 7.949-4.346 2.054a.6.6 0 0 0-.34-.41l-16.26-7.232zM6.795 6.823l16.053 7.709-5.317 2.513-15.53-7.812zm-5.518 3.4l15.974 8.035a.624.624 0 0 0 .1.037l.335 18.366-16.119-7.943zm33.594 17.73l-15.984 8.683-.341-18.733 5.054-2.388.006 5.542a.6.6 0 0 0 .281.509.6.6 0 0 0 .322.093.6.6 0 0 0 .258-.058l5.159-2.447a.6.6 0 0 0 .344-.562l-.18-6 5.081-2.4z"/><path data-name="Caminho 1069" d="M8.259 26.925L3.4 24.698a.6.6 0 0 0-.8.3.6.6 0 0 0 .3.8l4.859 2.227a.6.6 0 0 0 .251.055.6.6 0 0 0 .548-.352.6.6 0 0 0-.299-.803z"/><path data-name="Caminho 1070" d="M6.094 27.759L3.4 26.524a.6.6 0 0 0-.8.3.6.6 0 0 0 .3.8l2.694 1.235a.6.6 0 0 0 .251.055.6.6 0 0 0 .548-.352.6.6 0 0 0-.299-.803z"/></g></g></svg>