<svg xmlns="http://www.w3.org/2000/svg" width="29.875" height="34.667" viewBox="0 0 29.875 34.667"><g data-name="Grupo 161" opacity=".5"><path data-name="Subtração 2" d="M21.757 33.509h-.424a1.971 1.971 0 0 1-1.516-.557 2.881 2.881 0 0 1-.617-1.887V26.93a.608.608 0 0 0-.177-.428.6.6 0 0 0-.421-.174h-.006l-11.283.112L7.423 0h14.334zm-2.6 0H4.622a2.457 2.457 0 0 1-2.446-2.462V27.7l4.881-.048a.573.573 0 0 0 .091.008.588.588 0 0 0 .106-.01l11.186-.111v3.475a4.284 4.284 0 0 0 .717 2.492z" fill="#e3be69" opacity=".4"/><path data-name="Subtração 3" d="M21.246 33.621h-.426a1.987 1.987 0 0 1-1.523-.556 2.854 2.854 0 0 1-.621-1.886v-4.121a.6.6 0 0 0-.178-.427.6.6 0 0 0-.423-.174h-.006l-11.333.112.11-26.39h14.4z" fill="#4c2b1d" opacity=".3" style="mix-blend-mode:screen;isolation:isolate"/><path data-name="Caminho 1075" d="M29.706.502A.575.575 0 0 0 29.3.334l-7.525.021H6.046a.575.575 0 0 0-.575.573l-.108 25.849-4.791.047a.575.575 0 0 0-.57.575v3.764a3.507 3.507 0 0 0 3.5 3.5h25.8a.576.576 0 0 0 .575-.576V.904a.576.576 0 0 0-.171-.402zm-26.2 33.015a2.355 2.355 0 0 1-2.352-2.352v-3.194l4.693-.046a.57.57 0 0 0 .087.008.584.584 0 0 0 .1-.01l10.759-.106v3.32a4.034 4.034 0 0 0 .69 2.381zm15.031-.532a2.757 2.757 0 0 1-.593-1.8V27.235a.576.576 0 0 0-.171-.409.564.564 0 0 0-.411-.167l-10.849.107.106-25.26h15.158l6.949-.02v32.031h-8.732a1.9 1.9 0 0 1-1.46-.532z" fill="#4c2b1d"/><path data-name="Caminho 1076" d="M11.239 6.084a2.213 2.213 0 1 0 2.213 2.213 2.215 2.215 0 0 0-2.213-2.213zm0 3.275a1.062 1.062 0 1 1 1.062-1.062 1.063 1.063 0 0 1-1.062 1.062z" fill="#4c2b1d"/><path data-name="Caminho 1077" d="M11.239 11.952a2.213 2.213 0 1 0 2.213 2.213 2.215 2.215 0 0 0-2.213-2.213zm0 3.275a1.062 1.062 0 1 1 1.062-1.062 1.063 1.063 0 0 1-1.062 1.061z" fill="#4c2b1d"/><path data-name="Caminho 1078" d="M11.239 17.483a2.213 2.213 0 1 0 2.213 2.213 2.215 2.215 0 0 0-2.213-2.213zm0 3.275a1.062 1.062 0 1 1 1.062-1.062 1.063 1.063 0 0 1-1.062 1.062z" fill="#4c2b1d"/><path data-name="Caminho 1079" d="M15.217 9.163h9.419a.576.576 0 1 0 0-1.151h-9.419a.576.576 0 1 0 0 1.151z" fill="#4c2b1d"/><path data-name="Caminho 1080" d="M24.64 13.586h-9.423a.576.576 0 1 0 0 1.151h9.419a.576.576 0 0 0 0-1.151z" fill="#4c2b1d"/><path data-name="Caminho 1081" d="M24.64 19.12h-9.423a.576.576 0 1 0 0 1.151h9.419a.576.576 0 1 0 0-1.151z" fill="#4c2b1d"/></g></svg>