<svg xmlns="http://www.w3.org/2000/svg" width="39.831" height="39.076" viewBox="0 0 39.831 39.076"><g data-name="Grupo 130"><path data-name="Subtração 1" d="M21.439 33.554h-.424a1.97 1.97 0 0 1-1.516-.557 2.88 2.88 0 0 1-.616-1.886v-4.135a.608.608 0 0 0-.177-.428.6.6 0 0 0-.421-.174h-.006l-11.277.117.11-26.43h14.327zm-2.6 0H4.312a2.456 2.456 0 0 1-2.445-2.461v-3.342l4.878-.048a.573.573 0 0 0 .091.008.588.588 0 0 0 .106-.01l11.18-.111v3.471a4.282 4.282 0 0 0 .716 2.49z" fill="#e3be69" opacity=".4"/><path data-name="Subtração 1" d="M20.925 33.667h-.426a1.986 1.986 0 0 1-1.522-.556 2.852 2.852 0 0 1-.619-1.882v-4.122a.6.6 0 0 0-.178-.427.6.6 0 0 0-.423-.174h-.006l-11.326.112L6.535.24h14.39z" fill="#4c2b1d" opacity=".3" style="mix-blend-mode:screen;isolation:isolate"/><g data-name="Grupo 119" fill="#4c2b1d" style="mix-blend-mode:multiply;isolation:isolate"><g data-name="Grupo 123"><path data-name="Caminho 1006" d="M30.19 19.794c-.271 0-.539.012-.8.034V.566A.566.566 0 0 0 28.824 0l-7.4.021H5.952a.566.566 0 0 0-.566.564L5.28 26.012l-4.713.046a.566.566 0 0 0-.561.566v3.7a3.45 3.45 0 0 0 3.446 3.446h18.137a9.64 9.64 0 1 0 8.608-13.979zM3.446 32.637a2.316 2.316 0 0 1-2.314-2.314v-3.142l4.616-.046a.576.576 0 0 0 .086.008.57.57 0 0 0 .1-.009l10.579-.1V30.3a3.968 3.968 0 0 0 .678 2.342zm16.219 0a1.869 1.869 0 0 1-1.434-.524 2.713 2.713 0 0 1-.583-1.773v-3.883a.566.566 0 0 0-.572-.566l-10.672.105.1-24.848H21.42l6.835-.019v18.856a9.641 9.641 0 0 0-7.156 12.651zm10.525 5.3a8.509 8.509 0 1 1 8.509-8.509 8.518 8.518 0 0 1-8.509 8.516z" style="mix-blend-mode:multiply;isolation:isolate"/><g data-name="Grupo 122"><path data-name="Caminho 1007" d="M11.054 5.657a2.177 2.177 0 1 0 2.177 2.177 2.179 2.179 0 0 0-2.177-2.177zm0 3.221a1.045 1.045 0 1 1 1.045-1.045 1.046 1.046 0 0 1-1.045 1.045z" style="mix-blend-mode:multiply;isolation:isolate"/><path data-name="Caminho 1008" d="M11.054 11.433a2.177 2.177 0 1 0 2.177 2.177 2.179 2.179 0 0 0-2.177-2.177zm0 3.221a1.045 1.045 0 1 1 1.045-1.045 1.046 1.046 0 0 1-1.045 1.04z" style="mix-blend-mode:multiply;isolation:isolate"/><path data-name="Caminho 1009" d="M11.054 16.874a2.177 2.177 0 1 0 2.177 2.177 2.179 2.179 0 0 0-2.177-2.177zm0 3.221a1.045 1.045 0 1 1 1.045-1.045 1.046 1.046 0 0 1-1.045 1.041z" style="mix-blend-mode:multiply;isolation:isolate"/><path data-name="Caminho 1010" d="M14.973 8.691h9.265a.566.566 0 1 0 0-1.132h-9.265a.566.566 0 0 0 0 1.132z" style="mix-blend-mode:multiply;isolation:isolate"/><path data-name="Caminho 1011" d="M14.973 14.168h9.265a.566.566 0 1 0 0-1.132h-9.265a.566.566 0 0 0 0 1.132z" style="mix-blend-mode:multiply;isolation:isolate"/><path data-name="Caminho 1012" d="M24.804 19.043a.566.566 0 0 0-.566-.566h-9.265a.566.566 0 0 0 0 1.132h9.265a.566.566 0 0 0 .566-.566z" style="mix-blend-mode:multiply;isolation:isolate"/></g></g><path data-name="Caminho 1013" d="M35.435 26.128a1.132 1.132 0 0 0-1.6.055l-4.552 4.877-2.429-2.565a1.132 1.132 0 1 0-1.644 1.557l3.257 3.439a1.131 1.131 0 0 0 .822.354 1.132 1.132 0 0 0 .823-.36l5.373-5.757a1.131 1.131 0 0 0-.05-1.6z" style="mix-blend-mode:multiply;isolation:isolate"/></g></g></svg>