<svg xmlns="http://www.w3.org/2000/svg" width="35.048" height="40.998" viewBox="0 0 35.048 40.998"><defs><clipPath id="a"><path data-name="Retângulo 586" fill="#e3be69" d="M0 0h20.55v40.998H0z"/></clipPath></defs><g data-name="Grupo 158"><g data-name="Grupo 138" clip-path="url(#a)" opacity=".4" style="mix-blend-mode:screen;isolation:isolate"><g data-name="Grupo 137" fill="#e3be69"><path data-name="Caminho 1042" d="M35.402 27.666l-4.791 5.133-2.556-2.7a1.192 1.192 0 1 0-1.73 1.639l3.428 3.619a1.191 1.191 0 0 0 .865.372 1.192 1.192 0 0 0 .867-.378l5.656-6.06a1.191 1.191 0 1 0-1.742-1.626z"/><path data-name="Caminho 1043" d="M30.967 8.328a1.68 1.68 0 0 1-1.678 1.678h-16a1.677 1.677 0 1 1 0-3.355h16a1.679 1.679 0 0 1 1.678 1.677zM3.977 3.496a1.68 1.68 0 0 1 1.678-1.678h16a1.678 1.678 0 0 1 0 3.355h-16a1.68 1.68 0 0 1-1.678-1.677zm4.64 7.771h16a1.673 1.673 0 0 1 1.117.423 11.184 11.184 0 0 0-.368-.02h-.069c-.121 0-.243-.007-.365-.007h-.337l-.208.008h-.06l-.216.014h-.04l-.24.021h-.011a10.744 10.744 0 0 0-6.326 2.9H8.617a1.677 1.677 0 1 1 0-3.355zm5.658 9.289l-.01.056-.032.195c0 .029-.009.058-.013.088l-.023.165c0 .035-.009.07-.013.106l-.017.151-.012.115-.013.146c-.004.046-.007.078-.009.118l-.01.15c-.003.05 0 .075-.007.113 0 .056 0 .113-.006.169v.738q.011.3.038.606c0 .028.005.056.008.084q.013.132.029.263v.036H8.617a1.678 1.678 0 0 1 0-3.355h5.668a.93.93 0 0 0-.01.056zm-5.658-1.318a1.678 1.678 0 0 1 0-3.355h7.733a10.827 10.827 0 0 0-1.751 3.355zm0 9.232a1.678 1.678 0 0 1 0-3.355h5.808a10.827 10.827 0 0 0 1.482 3.355zm12.978 3.058a9.655 9.655 0 0 1-6.183-7.541v-.007q-.028-.18-.05-.362v-.014a8.618 8.618 0 0 1-.032-.327v-.056q-.013-.162-.019-.327v-.07c0-.113-.007-.225-.007-.339v-.283-.086c0-.066.006-.133.009-.2 0-.032 0-.065.006-.1l.015-.2c0-.03.005-.06.008-.09q.012-.125.028-.25c0-.029.007-.057.011-.085l.03-.205.022-.135.022-.127a3.934 3.934 0 0 1 .048-.241q.065-.307.149-.607l.02-.071a9.657 9.657 0 0 1 8.513-6.927l.217-.014h.031l.2-.008h.292a9.718 9.718 0 0 1 1.79.167c.017 0 .033 0 .049.006a9.573 9.573 0 0 1 7.726 8.3l-.164-.043-.089-.024-.181-.044-.115-.026-.208-.044-.219-.042-.15-.025-.158-.025-.142-.02-.2-.024-.1-.012q-.145-.015-.291-.025l-.105-.007-.223-.011h-.1c-.1 0-.209-.005-.315-.005a10.085 10.085 0 0 0-4.833 1.227l-.129.072a10.038 10.038 0 0 0-1.653-.32c-1.522-.185-2.107-.523-2.107-1.2 0-.692.815-1.138 2.061-1.138a4.858 4.858 0 0 1 2.784.877l1.184-1.769a6.922 6.922 0 0 0-3.214-1.184v-1.461h-2.089v1.523c-1.938.354-3.184 1.553-3.184 3.214 0 1.878 1.209 2.874 3.912 3.235a10.2 10.2 0 0 0-1.575 2.1 5.141 5.141 0 0 1-1.322-.754l-1.307 1.83a6.466 6.466 0 0 0 1.75.992 10.116 10.116 0 0 0-.423 2.9V31.436c0 .033.008.058.009.092zm10.137 8.516a8.969 8.969 0 0 1-8.878-7.775 9.442 9.442 0 0 1-.056-.559v-.056q-.007-.112-.011-.224v-.068-.271a8.954 8.954 0 0 1 3.952-7.424q.268-.181.549-.343t.575-.3l.2-.092a8.9 8.9 0 0 1 3.682-.792H32.027l.161.006h.065l.159.01h.057l.169.015h.045l.185.021h.028l.21.029a8.956 8.956 0 0 1-1.363 17.808z"/></g></g><g data-name="Grupo 154" fill="#4c2b1d"><path data-name="Caminho 1067" d="M27.081 11.708a2.8 2.8 0 0 0-.432-.82h2.345a2.809 2.809 0 1 0 0-5.618h-5.432A2.807 2.807 0 0 0 21.516.539H5.853a2.809 2.809 0 1 0 0 5.618h5.432a2.8 2.8 0 0 0-.18 3.633H8.753a26.148 26.148 0 0 1-2.809 7.329 2.806 2.806 0 0 1 0 4.52 2.806 2.806 0 0 1 0 4.52 2.812 2.812 0 0 0 2.809 2.809h8.176A10.453 10.453 0 1 0 27.08 11.709zm-12.472 7.053H8.753a1.643 1.643 0 0 1 0-3.285h7.571a10.436 10.436 0 0 0-1.715 3.284zm-.484 3.181a10.687 10.687 0 0 0 .085 1.339H8.753a1.643 1.643 0 0 1 0-3.285h5.55a10.67 10.67 0 0 0-.179 1.945zM30.637 8.08a1.644 1.644 0 0 1-1.643 1.642H13.331a1.642 1.642 0 1 1 0-3.285h15.663a1.644 1.644 0 0 1 1.643 1.641zM4.211 3.349a1.644 1.644 0 0 1 1.643-1.643h15.662a1.643 1.643 0 0 1 0 3.285H5.853a1.644 1.644 0 0 1-1.642-1.644zm4.543 7.609h15.663a1.638 1.638 0 0 1 1.094.414q-.393-.029-.786-.029a10.531 10.531 0 0 0-7.284 2.9H8.753a1.642 1.642 0 1 1 0-3.285zm0 16.844a1.642 1.642 0 1 1 0-3.285h5.686a10.6 10.6 0 0 0 1.451 3.285zm15.84 3.35a9.292 9.292 0 0 1-9.054-11.366l.055-.227.015-.056v-.006a9.433 9.433 0 0 1 2.18-3.95l.042-.045.105-.11a9.286 9.286 0 1 1 6.657 15.76z" opacity=".5"/><text transform="translate(23.179 20.245)" font-size="1" font-family="Nexa-Heavy, Nexa" font-weight="800"><tspan x="0" y="0"></tspan></text><text data-name="$" transform="translate(20.323 26.342)" font-size="14" font-family="Nexa-Heavy, Nexa" font-weight="800" opacity=".5"><tspan x="0" y="0">$</tspan></text></g></g></svg>