<svg data-name="Grupo 156" xmlns="http://www.w3.org/2000/svg" width="42.193" height="42.303" viewBox="0 0 42.193 42.303"><defs><clipPath id="a"><path data-name="Retângulo 586" fill="#e3be69" d="M0 0h21.204v42.303H0z"/></clipPath></defs><g data-name="Grupo 138" clip-path="url(#a)" opacity=".3" style="mix-blend-mode:screen;isolation:isolate"><g data-name="Grupo 137" fill="#e3be69"><path data-name="Caminho 1042" d="M36.53 28.546l-4.943 5.3-2.638-2.785a1.23 1.23 0 0 0-1.785 1.691l3.537 3.734a1.229 1.229 0 0 0 .893.384 1.229 1.229 0 0 0 .894-.391l5.836-6.252a1.23 1.23 0 0 0-1.8-1.678z"/><path data-name="Caminho 1043" d="M31.953 8.593a1.733 1.733 0 0 1-1.731 1.731H13.715a1.731 1.731 0 0 1 0-3.462h16.507a1.733 1.733 0 0 1 1.731 1.731zM4.104 3.607a1.733 1.733 0 0 1 1.731-1.731h16.506a1.731 1.731 0 0 1 0 3.462H5.835a1.733 1.733 0 0 1-1.731-1.731zm4.787 8.018h16.507a1.727 1.727 0 0 1 1.153.436 11.924 11.924 0 0 0-.38-.021H26.1c-.125 0-.251-.007-.377-.007H25.375l-.215.008h-.062l-.223.014h-.041l-.248.022h-.012a11.086 11.086 0 0 0-6.528 3H8.891a1.731 1.731 0 1 1 0-3.462zm5.838 9.585l-.01.057a7.565 7.565 0 0 0-.033.2c0 .03-.009.06-.014.09q-.013.085-.024.171l-.014.109-.018.156c0 .04-.009.079-.012.119l-.013.15-.01.121-.01.155c-.003.055 0 .078-.007.116 0 .058 0 .116-.007.174v.373c0 .106 0 .211.005.316v.075q.011.314.039.625c0 .029.005.058.008.086q.013.136.03.272v.037H8.891a1.731 1.731 0 0 1 0-3.462h5.849a1.5 1.5 0 0 0-.01.06zm-5.838-1.36a1.731 1.731 0 1 1 0-3.462h7.979a11.169 11.169 0 0 0-1.806 3.462zm0 9.526a1.731 1.731 0 1 1 0-3.462h5.993a11.172 11.172 0 0 0 1.529 3.462zm13.391 3.155a9.962 9.962 0 0 1-6.38-7.781v-.008q-.029-.186-.051-.373v-.015a9.372 9.372 0 0 1-.033-.337v-.057q-.013-.168-.02-.337v-.073c0-.116-.007-.232-.007-.349v-.292-.089c0-.068.006-.137.01-.206q0-.05.006-.1c0-.067.01-.134.016-.2 0-.031.005-.062.008-.093q.013-.129.029-.258c0-.029.008-.059.012-.088l.03-.212.023-.139.023-.131.031-.163.018-.086q.067-.317.154-.626l.021-.073a9.964 9.964 0 0 1 8.785-7.155l.224-.014h.032l.206-.008h.302a10.015 10.015 0 0 1 1.847.172c.017 0 .034 0 .051.006a9.878 9.878 0 0 1 7.972 8.562c-.056-.016-.113-.03-.169-.045l-.092-.024-.186-.046-.118-.027-.215-.046-.226-.043-.155-.026-.163-.026-.147-.02-.21-.025-.1-.012c-.1-.01-.2-.018-.3-.026l-.109-.007-.23-.012h-.1c-.108 0-.216-.006-.325-.006a10.405 10.405 0 0 0-4.986 1.266l-.133.074a10.372 10.372 0 0 0-1.705-.33c-1.571-.19-2.174-.539-2.174-1.238 0-.714.841-1.174 2.126-1.174a5.013 5.013 0 0 1 2.872.9l1.222-1.825a7.141 7.141 0 0 0-3.316-1.222V16.56h-2.163v1.571c-2 .365-3.285 1.6-3.285 3.317 0 1.937 1.247 2.965 4.036 3.338a10.532 10.532 0 0 0-1.625 2.169 5.3 5.3 0 0 1-1.364-.778l-1.349 1.888a6.671 6.671 0 0 0 1.806 1.023 10.437 10.437 0 0 0-.437 2.994v.348c0 .031.013.066.013.101zm10.46 8.787a9.254 9.254 0 0 1-9.16-8.022q-.038-.287-.058-.577v-.058l-.012-.231v-.069-.28a9.239 9.239 0 0 1 4.078-7.66q.277-.187.567-.354t.593-.313l.2-.1a9.186 9.186 0 0 1 3.8-.818H33.04l.166.006h.067l.164.01h.059l.174.016h.047l.191.022h.029q.109.014.217.03a9.241 9.241 0 0 1-1.406 18.374z"/></g></g><g data-name="Grupo 142" style="mix-blend-mode:multiply;isolation:isolate" fill="#4c2b1d"><path data-name="Caminho 1044" d="M35.626 28.301l-4.858 5.2-2.592-2.737a1.208 1.208 0 1 0-1.754 1.661l3.475 3.67a1.208 1.208 0 0 0 .877.377 1.208 1.208 0 0 0 .879-.384l5.735-6.144a1.208 1.208 0 1 0-1.766-1.648z"/><path data-name="Caminho 1045" d="M35.958 22.315a10.984 10.984 0 0 0-8.553-9.981 2.9 2.9 0 0 0-.406-.732h2.429a2.909 2.909 0 1 0 0-5.818h-5.626a2.907 2.907 0 0 0-2.118-4.9H5.464a2.909 2.909 0 0 0 0 5.818h5.626a2.9 2.9 0 0 0-.187 3.762H8.467a27.076 27.076 0 0 1-2.909 7.589 2.906 2.906 0 0 1 0 4.681 2.905 2.905 0 0 1 0 4.68 2.912 2.912 0 0 0 2.909 2.909h8.323a10.939 10.939 0 0 0 4.978 3.215 10.289 10.289 0 1 0 14.19-11.223zM31.129 8.693a1.7 1.7 0 0 1-1.7 1.7H13.208a1.7 1.7 0 0 1 0-3.4h16.22a1.7 1.7 0 0 1 1.701 1.7zm-27.366-4.9a1.7 1.7 0 0 1 1.7-1.7h16.22a1.7 1.7 0 1 1 0 3.4H5.464a1.7 1.7 0 0 1-1.701-1.699zm4.7 7.879h16.22a1.7 1.7 0 0 1 1.133.429 9.267 9.267 0 0 0-.374-.02h-.07c-.123 0-.246-.007-.37-.007h-.342l-.211.008h-.061l-.219.014h-.04l-.243.022h-.012a10.893 10.893 0 0 0-6.414 2.945h-9a1.7 1.7 0 1 1 0-3.4zm5.737 9.419l-.01.057c-.011.066-.023.132-.033.2 0 .03-.009.059-.013.089l-.024.168-.014.107-.017.153-.012.117c0 .049-.009.1-.013.148l-.01.119-.01.152c-.003.052 0 .076-.007.115 0 .057 0 .114-.007.171v.753q.011.309.039.615c0 .028.005.057.008.085q.013.134.029.267v.036h-5.65a1.7 1.7 0 0 1 0-3.4h5.759c-.004.01-.007.03-.01.049zm-5.737-1.336a1.7 1.7 0 0 1 0-3.4h7.841a10.977 10.977 0 0 0-1.775 3.4zm0 9.361a1.7 1.7 0 1 1 0-3.4h5.889a10.978 10.978 0 0 0 1.5 3.4zm13.159 3.1a9.789 9.789 0 0 1-6.269-7.646v-.007q-.029-.182-.05-.367v-.014a9.04 9.04 0 0 1-.032-.331v-.056q-.013-.165-.019-.331v-.071c0-.114-.007-.228-.007-.343v-.287-.088c0-.067.006-.135.01-.2q0-.049.006-.1l.016-.2c0-.031.005-.061.008-.092q.012-.127.028-.253c0-.029.008-.058.011-.087l.03-.208.023-.136.023-.128.031-.161.018-.085q.066-.311.151-.615l.021-.072a9.791 9.791 0 0 1 8.633-7.031l.22-.014h.032l.2-.008h.296a9.85 9.85 0 0 1 1.815.169c.017 0 .033 0 .05.006a9.707 9.707 0 0 1 7.833 8.413l-.166-.044-.09-.024-.183-.045-.116-.026-.21-.049a17.361 17.361 0 0 0-.222-.043l-.152-.025-.161-.025-.144-.02-.207-.025-.1-.012c-.1-.01-.2-.018-.3-.025l-.107-.007-.226-.012h-.1c-.106 0-.212-.005-.319-.005a10.226 10.226 0 0 0-4.9 1.244l-.131.073a10.17 10.17 0 0 0-1.676-.324c-1.544-.187-2.136-.53-2.136-1.216 0-.7.826-1.154 2.09-1.154a4.926 4.926 0 0 1 2.822.889l1.2-1.793a7.018 7.018 0 0 0-3.259-1.2v-1.481h-2.112v1.544c-1.965.359-3.228 1.575-3.228 3.259 0 1.9 1.226 2.914 3.966 3.28a10.351 10.351 0 0 0-1.6 2.132 5.216 5.216 0 0 1-1.341-.765l-1.325 1.856a6.555 6.555 0 0 0 1.775 1.005 10.257 10.257 0 0 0-.429 2.942V32.12c0 .032.012.065.013.097zm10.279 8.634a9.094 9.094 0 0 1-9-7.883q-.037-.282-.057-.567v-.057q-.007-.114-.011-.227v-.068-.275a9.078 9.078 0 0 1 4.007-7.527q.272-.184.557-.348t.583-.308q.1-.048.2-.093a9.028 9.028 0 0 1 3.733-.8H32.198l.163.006h.066l.161.01h.058l.171.015h.046l.188.022h.028l.213.03a9.081 9.081 0 0 1-1.382 18.056z"/></g></svg>