<svg xmlns="http://www.w3.org/2000/svg" width="74.896" height="82.617" viewBox="0 0 74.896 82.617"><g data-name="Grupo 174" transform="translate(1 1.117)"><g data-name="Grupo 131" style="mix-blend-mode:multiply;isolation:isolate"><g data-name="Grupo 132" opacity=".4" style="isolation:isolate" fill="#e3be69"><path data-name="Caminho 1026" d="M38.373 34.31v-5.188L13.649 17.25l-9.01 4.529L33.825 36.46z"/><path data-name="Caminho 1027" d="M38.374 8.937L34.395 6.99l-8.825 4.436 12.8 5.7z"/><path data-name="Caminho 1028" d="M38.373 19.599l-15.42-6.859-6.746 3.391 22.167 10.645z"/><path data-name="Caminho 1029" d="M38.374 36.225l-2.641 1.249.643 35.269 2-1z"/><path data-name="Caminho 1030" d="M33.3 38.146l-30.02-15.1.538 34.758L34.109 72.73l-.628-34.513a1.156 1.156 0 0 1-.181-.071zM12.89 57.51a1.13 1.13 0 0 1-1.5.558l-5.062-2.321a1.132 1.132 0 1 1 .943-2.059l5.063 2.321a1.132 1.132 0 0 1 .556 1.501zm4.069-1.567a1.132 1.132 0 0 1-1.03.661 1.118 1.118 0 0 1-.471-.1l-9.131-4.185a1.132 1.132 0 1 1 .943-2.059l9.131 4.186a1.131 1.131 0 0 1 .558 1.496z"/></g><g data-name="Grupo 155" fill="#4c2b1d"><path data-name="Caminho 1068" d="M69.316 21.258c0-.012-.005-.024-.007-.036a1.29 1.29 0 0 0-.022-.108l-.017-.051-.031-.087c-.011-.028-.016-.035-.025-.053s-.026-.052-.041-.077-.02-.034-.032-.051-.032-.047-.05-.07-.025-.032-.039-.047l-.059-.062-.045-.042-.069-.055-.048-.035c-.006 0-.01-.008-.016-.012-.023-.014-.046-.026-.071-.038s-.023-.015-.036-.021l-32.3-15.8a1.1 1.1 0 0 0-.98.005l-31.432 15.8-.014.007a1.225 1.225 0 0 0-.119.071.927.927 0 0 0-.106.085l-.027.025a1.057 1.057 0 0 0-.077.081l-.017.019a1.315 1.315 0 0 0-.079.109l-.013.024q-.029.049-.054.1c0 .008-.008.017-.012.025a.938.938 0 0 0-.047.131v.005a.962.962 0 0 0-.027.128v.036a.8.8 0 0 0-.008.114V21.416l.564 36.355a1.1 1.1 0 0 0 .614.972l31.737 15.639.036.015.053.022c.027.011.054.02.082.028l.046.014c.034.008.067.015.1.02l.033.006a1.086 1.086 0 0 0 .136.009h.021a1.057 1.057 0 0 0 .122-.008c.017 0 .033-.006.05-.009s.062-.011.092-.019.037-.012.054-.017.056-.018.082-.029.039-.018.057-.027l.047-.022 31.434-17.076a1.1 1.1 0 0 0 .577-.969V21.402a1.3 1.3 0 0 0-.017-.144zM55.921 37.872l-7.218 3.424-.011-9.444 6.95-3.284zM24.785 12.437L55.569 26.13v.033l-7.891 3.729-29.466-14.15zm11.145-5.6l29.748 14.552-7.956 3.759a1.1 1.1 0 0 0-.622-.75l-29.765-13.24zM15.723 16.994L45.11 31.106l-9.734 4.6-28.43-14.3zm-10.1 6.215l29.243 14.71a1.132 1.132 0 0 0 .176.068l.613 33.622-29.508-14.54zm61.5 32.458l-29.26 15.9-.624-34.294 9.252-4.372.012 10.146a1.1 1.1 0 0 0 .513.932 1.106 1.106 0 0 0 .59.17 1.1 1.1 0 0 0 .472-.106l9.444-4.48a1.1 1.1 0 0 0 .629-1.03l-.329-10.987 9.3-4.395z"/><path data-name="Caminho 1069" d="M18.564 53.789l-8.991-4.121a1.115 1.115 0 0 0-1.478.549 1.115 1.115 0 0 0 .549 1.478l8.991 4.121a1.108 1.108 0 0 0 .463.1 1.114 1.114 0 0 0 1.014-.651 1.115 1.115 0 0 0-.548-1.476z"/><path data-name="Caminho 1070" d="M14.558 55.309l-4.985-2.285a1.115 1.115 0 0 0-1.478.549 1.115 1.115 0 0 0 .549 1.478l4.984 2.285a1.113 1.113 0 0 0 .464.1 1.114 1.114 0 0 0 1.014-.651 1.114 1.114 0 0 0-.548-1.476z"/></g></g><path data-name="Caminho 1074" d="M0 18.173L36.157 0l36.74 18.173v40.385L36.157 78.75 0 61.442z" fill="none" stroke="#e3be69" stroke-width="2"/><circle data-name="Elipse 1" cx="16.5" cy="16.5" r="16.5" transform="translate(23.547 46.5)" fill="#fff" stroke="#e3be69" stroke-width="4"/><path data-name="Caminho 1013" d="M49.137 57.12a2.04 2.04 0 0 0-2.883.1l-8.2 8.788-4.377-4.622a2.04 2.04 0 1 0-2.962 2.805l5.869 6.2a2.039 2.039 0 0 0 1.48.637h.008a2.041 2.041 0 0 0 1.484-.648l9.683-10.375a2.039 2.039 0 0 0-.102-2.885z" fill="#e3be69" style="mix-blend-mode:multiply;isolation:isolate"/></g></svg>