<svg data-name="Grupo 147" xmlns="http://www.w3.org/2000/svg" width="36.769" height="40.763" viewBox="0 0 36.769 40.763"><g data-name="Grupo 143"><g data-name="Grupo 133" opacity=".4" style="isolation:isolate" fill="#e3be69"><path data-name="Caminho 1031" d="M16.95 3.674l-.712.057a.623.623 0 0 1-.623-.629v-.017a2.4 2.4 0 0 0-4.679 0v.023a.624.624 0 0 1-.624.623H7.68v3.693l9.269-.057z"/><path data-name="Caminho 1032" d="M16.921 20.715H13a.624.624 0 1 1 0-1.247h3.921v-5.35H13a.624.624 0 1 1 0-1.247h3.921V7.776H7.45a.624.624 0 0 1-.453-.272.695.695 0 0 1-.031-.051.625.625 0 0 1-.075-.3V4.621H3.442a1.708 1.708 0 0 0-1.707 1.706v23.974a1.708 1.708 0 0 0 1.707 1.707h13.479zm-6.7 4.378l-2.963 3.175a.624.624 0 0 1-.454.2.624.624 0 0 1-.453-.195l-1.8-1.9a.624.624 0 0 1 .906-.857l1.34 1.415 2.511-2.69a.624.624 0 1 1 .912.851zm0-6.64l-2.963 3.175a.624.624 0 0 1-.454.2.622.622 0 0 1-.453-.195l-1.8-1.9a.624.624 0 0 1 .906-.858l1.34 1.415 2.511-2.69a.624.624 0 0 1 .912.851zm0-6.043l-2.963 3.175a.624.624 0 0 1-.454.2.623.623 0 0 1-.453-.195l-1.8-1.9a.624.624 0 0 1 .906-.858l1.34 1.415 2.511-2.69a.624.624 0 1 1 .912.851z"/></g><g data-name="Grupo 134" style="mix-blend-mode:multiply;isolation:isolate" fill="#4c2b1d"><path data-name="Caminho 1033" d="M26.583 20.392a10.23 10.23 0 0 0-1.069.056V6.939a2.836 2.836 0 0 0-2.833-2.833h-3.419V2.993a.6.6 0 0 0-.6-.6h-2.59a3.573 3.573 0 0 0-6.746 0h-2.59a.6.6 0 0 0-.6.6v1.113H2.83A2.836 2.836 0 0 0-.003 6.939V29.93a2.836 2.836 0 0 0 2.833 2.833h13.8a10.186 10.186 0 1 0 9.949-12.371zM7.336 3.592H9.86a.6.6 0 0 0 .6-.6V2.97a2.305 2.305 0 0 1 4.487 0v.017a.6.6 0 0 0 .6.6h2.524v3.541H7.341V3.587zm9.109 27.975H2.83a1.638 1.638 0 0 1-1.637-1.637V6.939A1.638 1.638 0 0 1 2.83 5.3h3.307v2.429a.6.6 0 0 0 0 .061.588.588 0 0 0 .069.224.557.557 0 0 0 .03.049.6.6 0 0 0 .435.261.565.565 0 0 0 .061 0h11.926a.559.559 0 0 0 .061 0 .6.6 0 0 0 .435-.261.494.494 0 0 0 .03-.049.6.6 0 0 0 .069-.224V5.3h3.419a1.638 1.638 0 0 1 1.637 1.637v13.706a10.151 10.151 0 0 0-6.89 5.456.6.6 0 0 0-.432-.186h-5a.6.6 0 1 0 0 1.2h5a10.172 10.172 0 0 0-.549 2.417v.031q-.01.1-.018.206v.065c0 .058-.008.117-.011.176v.079c0 .057 0 .115-.007.172v.573c0 .057 0 .114.006.171v.078c0 .069.008.138.013.207v.04l.018.216c.005.005.005.014.006.023zm10.138 8a9 9 0 0 1-8.871-7.53 9.039 9.039 0 0 1-.087-.7v-.023q-.014-.171-.021-.342v-.054c0-.114-.007-.228-.007-.341v-.012-.207-.068c0-.051 0-.1.006-.153v-.071c0-.051.006-.1.01-.154v-.061l.015-.17v-.041c.007-.069.015-.137.024-.206a8.99 8.99 0 1 1 8.917 10.134z"/><path data-name="Caminho 1034" d="M30.347 27.142l-4.809 5.153-2.566-2.71a1.2 1.2 0 1 0-1.737 1.645l3.441 3.633a1.2 1.2 0 0 0 .868.373 1.2 1.2 0 0 0 .87-.38l5.677-6.082a1.2 1.2 0 0 0-1.749-1.632z"/><path data-name="Caminho 1035" d="M8.461 17.752l-2.408 2.579-1.285-1.357a.6.6 0 0 0-.868.822l1.722 1.819a.6.6 0 0 0 .434.187.6.6 0 0 0 .435-.19l2.842-3.044a.6.6 0 1 0-.874-.816z"/><path data-name="Caminho 1036" d="M8.461 11.956l-2.408 2.579-1.285-1.357A.6.6 0 0 0 3.9 14l1.722 1.819a.6.6 0 0 0 .434.187.6.6 0 0 0 .435-.19l2.842-3.044a.6.6 0 1 0-.874-.816z"/><path data-name="Caminho 1037" d="M8.461 24.114l-2.408 2.579-1.285-1.357a.6.6 0 1 0-.868.822l1.722 1.818a.6.6 0 0 0 .434.187.6.6 0 0 0 .435-.19l2.842-3.044a.6.6 0 1 0-.874-.816z"/><path data-name="Caminho 1038" d="M11.999 14.41h9.128a.6.6 0 0 0 0-1.2h-9.128a.6.6 0 1 0 0 1.2z"/><path data-name="Caminho 1039" d="M11.999 20.737h9.128a.6.6 0 0 0 0-1.2h-9.128a.6.6 0 1 0 0 1.2z"/></g></g></svg>