<svg data-name="Grupo 84" xmlns="http://www.w3.org/2000/svg" width="37.443" height="37.011" viewBox="0 0 37.443 37.011"><path data-name="Caminho 965" d="M17.859 36.801v-9.265a20.366 20.366 0 0 0-5.162.878q-.353.108-.7.23a27.673 27.673 0 0 0 1.974 3.548c.48.73.984 1.42 1.5 2.062q.387.482.785.926a20.882 20.882 0 0 0 1.603 1.621z" fill="#281815"/><path data-name="Caminho 966" d="M15.337 26.047q.415-.062.833-.11.837-.1 1.689-.127v-6.414H9.693a22.313 22.313 0 0 0 .5 3.938 25.071 25.071 0 0 0 1.124 3.719q.387-.137.781-.26.788-.245 1.6-.433t1.639-.313z" fill="#281815"/><path data-name="Caminho 967" d="M14.139 35.375a28.38 28.38 0 0 1-2.646-3.879q-.3-.53-.583-1.081t-.543-1.12c-.2.092-.4.2-.6.3a18.8 18.8 0 0 0-3.9 2.563q.495.467 1.022.9a18.674 18.674 0 0 0 8.7 3.958 27.323 27.323 0 0 1-1.45-1.641z" fill="#281815"/><path data-name="Caminho 968" d="M7.065 29.125a20.734 20.734 0 0 1 2.631-1.422 25.422 25.422 0 0 1-1.73-8.308H0a18.6 18.6 0 0 0 2.412 8.359 18.861 18.861 0 0 0 2.255 3.16 20.437 20.437 0 0 1 2.398-1.789z" fill="#281815"/><path data-name="Caminho 969" d="M10.067 8.518a21.506 21.506 0 0 1-2.619-1.229q-.629-.349-1.229-.738t-1.17-.818q-.277.3-.542.6a18.836 18.836 0 0 0-2.3 3.347A18.591 18.591 0 0 0 0 17.667h7.974a25.205 25.205 0 0 1 .383-3.528q.21-1.16.526-2.293a25.546 25.546 0 0 1 1.184-3.328z" fill="#281815"/><path data-name="Caminho 970" d="M17.859.524q-.42.393-.819.8a26.553 26.553 0 0 0-4.566 6.191q.643.187 1.3.334a22.5 22.5 0 0 0 4.082.524z" fill="#281815"/><path data-name="Caminho 971" d="M15.922 0a18.538 18.538 0 0 0-3.319.817q-.639.221-1.258.488t-1.213.574q-.3.154-.588.318a18.878 18.878 0 0 0-3.243 2.314 19.4 19.4 0 0 0 4.506 2.442q.242-.469.5-.93a27.689 27.689 0 0 1 2.407-3.555A29.658 29.658 0 0 1 15.922 0z" fill="#281815"/><path data-name="Caminho 972" d="M17.858 17.67V10.1q-.8-.028-1.583-.105a23.951 23.951 0 0 1-3.08-.506q-.753-.175-1.485-.4a23.63 23.63 0 0 0-1.808 6.366q-.15 1.1-.2 2.215z" fill="#281815"/><path data-name="Caminho 973" d="M19.585 19.396v6.418q.878.036 1.733.142t1.682.271a22.928 22.928 0 0 1 3.163.874 24.41 24.41 0 0 0 1.478-5.7q.129-.992.167-2z" fill="#281815"/><path data-name="Caminho 974" d="M24.306 9.439a24.194 24.194 0 0 1-4.723.655v7.576h8.209q-.046-1.124-.2-2.229-.076-.552-.177-1.1-.2-1.094-.509-2.162a23.856 23.856 0 0 0-1.141-3.14q-.71.22-1.459.4z" fill="#281815"/><path data-name="Caminho 975" d="M24.38 28.354a20.54 20.54 0 0 0-4.795-.812v9.31a25.754 25.754 0 0 0 5.893-8.149 20.684 20.684 0 0 0-1.098-.349z" fill="#281815"/><path data-name="Caminho 976" d="M21.93 2.938q-.36-.427-.74-.844-.761-.833-1.6-1.621v7.895a22.1 22.1 0 0 0 2.7-.283c.258-.043.513-.089.766-.141.668-.135 1.319-.3 1.948-.482a26.057 26.057 0 0 0-3.074-4.524z" fill="#281815"/><path data-name="Caminho 977" d="M30.039 33.459q.54-.41 1.049-.858.254-.223.5-.456a17.291 17.291 0 0 0-4.479-2.8 27.886 27.886 0 0 1-5.188 7.65 18.576 18.576 0 0 0 5.239-1.737q.61-.308 1.193-.659a18.917 18.917 0 0 0 1.686-1.14z" fill="#281815"/><path data-name="Caminho 978" d="M29.534 19.396c-.023.7-.079 1.389-.161 2.071a25.2 25.2 0 0 1-.728 3.674q-.16.582-.344 1.149-.137.423-.286.837c-.075.208-.148.417-.228.623a21.684 21.684 0 0 1 2.146 1.094q.333.194.648.395a16.237 16.237 0 0 1 2.206 1.665 18.677 18.677 0 0 0 4.512-9.876q.107-.8.145-1.63z" fill="#281815"/><path data-name="Caminho 979" d="M22.148.106a32.757 32.757 0 0 0-.561-.1 28.2 28.2 0 0 1 5.08 6.9c.6-.228 1.171-.474 1.711-.733a17.643 17.643 0 0 0 2.518-1.457c.089-.062.18-.125.264-.187A18.7 18.7 0 0 0 22.148.106z" fill="#281815"/><path data-name="Caminho 980" d="M37.444 17.67a18.605 18.605 0 0 0-.907-4.961q-.129-.393-.274-.779a18.791 18.791 0 0 0-3.852-6.183q-.483.373-1.043.738-.28.182-.577.359a21.831 21.831 0 0 1-3.079 1.51l-.3.12a25.273 25.273 0 0 1 2.112 9.2z" fill="#281815"/></svg>